<mxfile host="app.diagrams.net" modified="2021-08-20T01:15:48.458Z" agent="5.0 (Windows NT 10.0; Win64; x64) AppleWebKit/537.36 (KHTML, like Gecko) Chrome/92.0.4515.159 Safari/537.36" etag="brTFzbB-WFihQJzvZ8Zm" version="14.9.7" type="github">
  <diagram id="dC8MhIQwjKtX95DGFwRr" name="Page-1">
    <mxGraphModel dx="2522" dy="1612" grid="1" gridSize="10" guides="1" tooltips="1" connect="1" arrows="1" fold="1" page="1" pageScale="1" pageWidth="1100" pageHeight="850" math="0" shadow="0">
      <root>
        <mxCell id="0" />
        <mxCell id="1" parent="0" />
        <mxCell id="ZMSztsOyMsakCCSBzYCo-3" value="AZURE" style="rounded=1;whiteSpace=wrap;html=1;points=[[0,0.025],[0,0.05],[0,0.075],[0,0.1],[0,0.125],[0,0.15],[0,0.175],[0,0.2],[0,0.225],[0,0.25],[0,0.275],[0,0.3],[0,0.325],[0,0.35],[0,0.375],[0,0.4],[0,0.425],[0,0.45],[0,0.475],[0,0.5],[0,0.525],[0,0.55],[0,0.575],[0,0.6],[0,0.625],[0,0.65],[0,0.675],[0,0.7],[0,0.725],[0,0.75],[0,0.775],[0,0.8],[0,0.825],[0,0.85],[0,0.875],[0,0.9],[0,0.925],[0,0.95],[0,0.975],[0.025,0],[0.05,0],[0.075,0],[0.1,0],[0.125,0],[0.15,0],[0.175,0],[0.2,0],[0.225,0],[0.25,0],[0.275,0],[0.3,0],[0.325,0],[0.35,0],[0.375,0],[0.4,0],[0.425,0],[0.45,0],[0.475,0],[0.5,0],[0.525,0],[0.55,0],[0.575,0],[0.6,0],[0.625,0],[0.65,0],[0.675,0],[0.7,0],[0.725,0],[0.75,0],[0.775,0],[0.8,0],[0.825,0],[0.85,0],[0.875,0],[0.9,0],[0.925,0],[0.95,0],[0.975,0],[1,0.025],[1,0.05],[1,0.075],[1,0.1],[1,0.125],[1,0.15],[1,0.175],[1,0.2],[1,0.225],[1,0.25],[1,0.275],[1,0.3],[1,0.325],[1,0.35],[1,0.375],[1,0.4],[1,0.425],[1,0.45],[1,0.475],[1,0.5],[1,0.525],[1,0.55],[1,0.575],[1,0.6],[1,0.625],[1,0.65],[1,0.675],[1,0.7],[1,0.725],[1,0.75],[1,0.775],[1,0.8],[1,0.825],[1,0.85],[1,0.875],[1,0.9],[1,0.925],[1,0.95],[1,0.975],[0.025,1],[0.05,1],[0.075,1],[0.1,1],[0.125,1],[0.15,1],[0.175,1],[0.2,1],[0.225,1],[0.25,1],[0.275,1],[0.3,1],[0.325,1],[0.35,1],[0.375,1],[0.4,1],[0.425,1],[0.45,1],[0.475,1],[0.5,1],[0.525,1],[0.55,1],[0.575,1],[0.6,1],[0.625,1],[0.65,1],[0.675,1],[0.7,1],[0.725,1],[0.75,1],[0.775,1],[0.8,1],[0.825,1],[0.85,1],[0.875,1],[0.9,1],[0.925,1],[0.95,1],[0.975,1]];verticalAlign=top;fontStyle=1;strokeColor=#666666;fillColor=#f5f5f5;fontColor=#333333;fontSize=17;" vertex="1" parent="1">
          <mxGeometry x="350" y="-90" width="300" height="180" as="geometry" />
        </mxCell>
        <mxCell id="ZMSztsOyMsakCCSBzYCo-4" style="edgeStyle=orthogonalEdgeStyle;rounded=0;orthogonalLoop=1;jettySize=auto;html=1;exitX=0.425;exitY=1;exitDx=0;exitDy=0;entryX=0;entryY=0.475;entryDx=0;entryDy=0;fontSize=21;" edge="1" parent="1" source="ZMSztsOyMsakCCSBzYCo-8" target="ZMSztsOyMsakCCSBzYCo-17">
          <mxGeometry relative="1" as="geometry" />
        </mxCell>
        <mxCell id="ZMSztsOyMsakCCSBzYCo-5" style="edgeStyle=orthogonalEdgeStyle;rounded=0;orthogonalLoop=1;jettySize=auto;html=1;exitX=0.4;exitY=1;exitDx=0;exitDy=0;entryX=0;entryY=0.575;entryDx=0;entryDy=0;fontSize=21;" edge="1" parent="1" source="ZMSztsOyMsakCCSBzYCo-8" target="ZMSztsOyMsakCCSBzYCo-18">
          <mxGeometry relative="1" as="geometry" />
        </mxCell>
        <mxCell id="ZMSztsOyMsakCCSBzYCo-6" value="metadata" style="edgeStyle=orthogonalEdgeStyle;rounded=0;orthogonalLoop=1;jettySize=auto;html=1;exitX=0.475;exitY=0;exitDx=0;exitDy=0;entryX=0;entryY=0.5;entryDx=0;entryDy=0;dashed=1;fontSize=17;" edge="1" parent="1" source="ZMSztsOyMsakCCSBzYCo-8" target="ZMSztsOyMsakCCSBzYCo-23">
          <mxGeometry relative="1" as="geometry" />
        </mxCell>
        <mxCell id="ZMSztsOyMsakCCSBzYCo-7" style="edgeStyle=orthogonalEdgeStyle;rounded=0;orthogonalLoop=1;jettySize=auto;html=1;exitX=1;exitY=0.5;exitDx=0;exitDy=0;entryX=0;entryY=0.5;entryDx=0;entryDy=0;dashed=1;fontSize=16;" edge="1" parent="1" source="ZMSztsOyMsakCCSBzYCo-8" target="ZMSztsOyMsakCCSBzYCo-41">
          <mxGeometry relative="1" as="geometry" />
        </mxCell>
        <mxCell id="ZMSztsOyMsakCCSBzYCo-8" value="GitHub" style="rounded=1;whiteSpace=wrap;html=1;points=[[0,0.025],[0,0.05],[0,0.075],[0,0.1],[0,0.125],[0,0.15],[0,0.175],[0,0.2],[0,0.225],[0,0.25],[0,0.275],[0,0.3],[0,0.325],[0,0.35],[0,0.375],[0,0.4],[0,0.425],[0,0.45],[0,0.475],[0,0.5],[0,0.525],[0,0.55],[0,0.575],[0,0.6],[0,0.625],[0,0.65],[0,0.675],[0,0.7],[0,0.725],[0,0.75],[0,0.775],[0,0.8],[0,0.825],[0,0.85],[0,0.875],[0,0.9],[0,0.925],[0,0.95],[0,0.975],[0.025,0],[0.05,0],[0.075,0],[0.1,0],[0.125,0],[0.15,0],[0.175,0],[0.2,0],[0.225,0],[0.25,0],[0.275,0],[0.3,0],[0.325,0],[0.35,0],[0.375,0],[0.4,0],[0.425,0],[0.45,0],[0.475,0],[0.5,0],[0.525,0],[0.55,0],[0.575,0],[0.6,0],[0.625,0],[0.65,0],[0.675,0],[0.7,0],[0.725,0],[0.75,0],[0.775,0],[0.8,0],[0.825,0],[0.85,0],[0.875,0],[0.9,0],[0.925,0],[0.95,0],[0.975,0],[1,0.025],[1,0.05],[1,0.075],[1,0.1],[1,0.125],[1,0.15],[1,0.175],[1,0.2],[1,0.225],[1,0.25],[1,0.275],[1,0.3],[1,0.325],[1,0.35],[1,0.375],[1,0.4],[1,0.425],[1,0.45],[1,0.475],[1,0.5],[1,0.525],[1,0.55],[1,0.575],[1,0.6],[1,0.625],[1,0.65],[1,0.675],[1,0.7],[1,0.725],[1,0.75],[1,0.775],[1,0.8],[1,0.825],[1,0.85],[1,0.875],[1,0.9],[1,0.925],[1,0.95],[1,0.975],[0.025,1],[0.05,1],[0.075,1],[0.1,1],[0.125,1],[0.15,1],[0.175,1],[0.2,1],[0.225,1],[0.25,1],[0.275,1],[0.3,1],[0.325,1],[0.35,1],[0.375,1],[0.4,1],[0.425,1],[0.45,1],[0.475,1],[0.5,1],[0.525,1],[0.55,1],[0.575,1],[0.6,1],[0.625,1],[0.65,1],[0.675,1],[0.7,1],[0.725,1],[0.75,1],[0.775,1],[0.8,1],[0.825,1],[0.85,1],[0.875,1],[0.9,1],[0.925,1],[0.95,1],[0.975,1]];verticalAlign=middle;fontStyle=1;strokeColor=#666666;fillColor=#f5f5f5;fontColor=#333333;fontSize=21;" vertex="1" parent="1">
          <mxGeometry x="40" y="160" width="180" height="60" as="geometry" />
        </mxCell>
        <mxCell id="ZMSztsOyMsakCCSBzYCo-9" style="edgeStyle=orthogonalEdgeStyle;rounded=0;orthogonalLoop=1;jettySize=auto;html=1;fontSize=17;entryX=0.475;entryY=0;entryDx=0;entryDy=0;" edge="1" parent="1" source="ZMSztsOyMsakCCSBzYCo-12" target="ZMSztsOyMsakCCSBzYCo-17">
          <mxGeometry relative="1" as="geometry" />
        </mxCell>
        <mxCell id="ZMSztsOyMsakCCSBzYCo-10" value="AnÃ¡lisis de dependencias" style="edgeStyle=orthogonalEdgeStyle;rounded=0;orthogonalLoop=1;jettySize=auto;html=1;exitX=0.5;exitY=0;exitDx=0;exitDy=0;exitPerimeter=0;entryX=1;entryY=0.5;entryDx=0;entryDy=0;dashed=1;fontSize=17;" edge="1" parent="1" source="ZMSztsOyMsakCCSBzYCo-12" target="ZMSztsOyMsakCCSBzYCo-37">
          <mxGeometry relative="1" as="geometry" />
        </mxCell>
        <mxCell id="ZMSztsOyMsakCCSBzYCo-11" value="Herramienta usada&lt;br&gt;para Diagramas BP" style="edgeStyle=orthogonalEdgeStyle;rounded=0;orthogonalLoop=1;jettySize=auto;html=1;exitX=0;exitY=0.3333333333333333;exitDx=0;exitDy=0;exitPerimeter=0;entryX=1;entryY=0.5;entryDx=0;entryDy=0;dashed=1;fontSize=16;" edge="1" parent="1" source="ZMSztsOyMsakCCSBzYCo-12" target="ZMSztsOyMsakCCSBzYCo-43">
          <mxGeometry relative="1" as="geometry">
            <Array as="points">
              <mxPoint x="930" y="145" />
            </Array>
          </mxGeometry>
        </mxCell>
        <mxCell id="ZMSztsOyMsakCCSBzYCo-12" value="SA" style="shape=umlActor;verticalLabelPosition=bottom;verticalAlign=top;html=1;outlineConnect=0;fontSize=21;" vertex="1" parent="1">
          <mxGeometry x="930" y="170" width="30" height="60" as="geometry" />
        </mxCell>
        <mxCell id="ZMSztsOyMsakCCSBzYCo-13" style="edgeStyle=orthogonalEdgeStyle;rounded=0;orthogonalLoop=1;jettySize=auto;html=1;exitX=0.425;exitY=1;exitDx=0;exitDy=0;entryX=0;entryY=0.55;entryDx=0;entryDy=0;fontSize=21;" edge="1" parent="1" source="ZMSztsOyMsakCCSBzYCo-17" target="ZMSztsOyMsakCCSBzYCo-21">
          <mxGeometry relative="1" as="geometry" />
        </mxCell>
        <mxCell id="ZMSztsOyMsakCCSBzYCo-14" style="edgeStyle=orthogonalEdgeStyle;rounded=0;orthogonalLoop=1;jettySize=auto;html=1;exitX=0.4;exitY=1;exitDx=0;exitDy=0;entryX=0;entryY=0.475;entryDx=0;entryDy=0;fontSize=17;" edge="1" parent="1" source="ZMSztsOyMsakCCSBzYCo-17" target="ZMSztsOyMsakCCSBzYCo-27">
          <mxGeometry relative="1" as="geometry" />
        </mxCell>
        <mxCell id="ZMSztsOyMsakCCSBzYCo-15" style="edgeStyle=orthogonalEdgeStyle;rounded=0;orthogonalLoop=1;jettySize=auto;html=1;exitX=0.375;exitY=1;exitDx=0;exitDy=0;entryX=0;entryY=0.5;entryDx=0;entryDy=0;fontSize=17;" edge="1" parent="1" source="ZMSztsOyMsakCCSBzYCo-17" target="ZMSztsOyMsakCCSBzYCo-28">
          <mxGeometry relative="1" as="geometry" />
        </mxCell>
        <mxCell id="ZMSztsOyMsakCCSBzYCo-16" style="edgeStyle=orthogonalEdgeStyle;rounded=0;orthogonalLoop=1;jettySize=auto;html=1;exitX=0.3;exitY=1;exitDx=0;exitDy=0;entryX=0;entryY=0.5;entryDx=0;entryDy=0;entryPerimeter=0;fontSize=17;" edge="1" parent="1" source="ZMSztsOyMsakCCSBzYCo-17" target="ZMSztsOyMsakCCSBzYCo-29">
          <mxGeometry relative="1" as="geometry" />
        </mxCell>
        <mxCell id="ZMSztsOyMsakCCSBzYCo-17" value="Repositorio Ventas" style="rounded=1;whiteSpace=wrap;html=1;points=[[0,0.025],[0,0.05],[0,0.075],[0,0.1],[0,0.125],[0,0.15],[0,0.175],[0,0.2],[0,0.225],[0,0.25],[0,0.275],[0,0.3],[0,0.325],[0,0.35],[0,0.375],[0,0.4],[0,0.425],[0,0.45],[0,0.475],[0,0.5],[0,0.525],[0,0.55],[0,0.575],[0,0.6],[0,0.625],[0,0.65],[0,0.675],[0,0.7],[0,0.725],[0,0.75],[0,0.775],[0,0.8],[0,0.825],[0,0.85],[0,0.875],[0,0.9],[0,0.925],[0,0.95],[0,0.975],[0.025,0],[0.05,0],[0.075,0],[0.1,0],[0.125,0],[0.15,0],[0.175,0],[0.2,0],[0.225,0],[0.25,0],[0.275,0],[0.3,0],[0.325,0],[0.35,0],[0.375,0],[0.4,0],[0.425,0],[0.45,0],[0.475,0],[0.5,0],[0.525,0],[0.55,0],[0.575,0],[0.6,0],[0.625,0],[0.65,0],[0.675,0],[0.7,0],[0.725,0],[0.75,0],[0.775,0],[0.8,0],[0.825,0],[0.85,0],[0.875,0],[0.9,0],[0.925,0],[0.95,0],[0.975,0],[1,0.025],[1,0.05],[1,0.075],[1,0.1],[1,0.125],[1,0.15],[1,0.175],[1,0.2],[1,0.225],[1,0.25],[1,0.275],[1,0.3],[1,0.325],[1,0.35],[1,0.375],[1,0.4],[1,0.425],[1,0.45],[1,0.475],[1,0.5],[1,0.525],[1,0.55],[1,0.575],[1,0.6],[1,0.625],[1,0.65],[1,0.675],[1,0.7],[1,0.725],[1,0.75],[1,0.775],[1,0.8],[1,0.825],[1,0.85],[1,0.875],[1,0.9],[1,0.925],[1,0.95],[1,0.975],[0.025,1],[0.05,1],[0.075,1],[0.1,1],[0.125,1],[0.15,1],[0.175,1],[0.2,1],[0.225,1],[0.25,1],[0.275,1],[0.3,1],[0.325,1],[0.35,1],[0.375,1],[0.4,1],[0.425,1],[0.45,1],[0.475,1],[0.5,1],[0.525,1],[0.55,1],[0.575,1],[0.6,1],[0.625,1],[0.65,1],[0.675,1],[0.7,1],[0.725,1],[0.75,1],[0.775,1],[0.8,1],[0.825,1],[0.85,1],[0.875,1],[0.9,1],[0.925,1],[0.95,1],[0.975,1]];verticalAlign=middle;fontStyle=1;strokeColor=#666666;fillColor=#f5f5f5;fontColor=#333333;fontSize=21;" vertex="1" parent="1">
          <mxGeometry x="320" y="240" width="200" height="40" as="geometry" />
        </mxCell>
        <mxCell id="ZMSztsOyMsakCCSBzYCo-18" value="Repositorio Post-Ventas" style="rounded=1;whiteSpace=wrap;html=1;points=[[0,0.025],[0,0.05],[0,0.075],[0,0.1],[0,0.125],[0,0.15],[0,0.175],[0,0.2],[0,0.225],[0,0.25],[0,0.275],[0,0.3],[0,0.325],[0,0.35],[0,0.375],[0,0.4],[0,0.425],[0,0.45],[0,0.475],[0,0.5],[0,0.525],[0,0.55],[0,0.575],[0,0.6],[0,0.625],[0,0.65],[0,0.675],[0,0.7],[0,0.725],[0,0.75],[0,0.775],[0,0.8],[0,0.825],[0,0.85],[0,0.875],[0,0.9],[0,0.925],[0,0.95],[0,0.975],[0.025,0],[0.05,0],[0.075,0],[0.1,0],[0.125,0],[0.15,0],[0.175,0],[0.2,0],[0.225,0],[0.25,0],[0.275,0],[0.3,0],[0.325,0],[0.35,0],[0.375,0],[0.4,0],[0.425,0],[0.45,0],[0.475,0],[0.5,0],[0.525,0],[0.55,0],[0.575,0],[0.6,0],[0.625,0],[0.65,0],[0.675,0],[0.7,0],[0.725,0],[0.75,0],[0.775,0],[0.8,0],[0.825,0],[0.85,0],[0.875,0],[0.9,0],[0.925,0],[0.95,0],[0.975,0],[1,0.025],[1,0.05],[1,0.075],[1,0.1],[1,0.125],[1,0.15],[1,0.175],[1,0.2],[1,0.225],[1,0.25],[1,0.275],[1,0.3],[1,0.325],[1,0.35],[1,0.375],[1,0.4],[1,0.425],[1,0.45],[1,0.475],[1,0.5],[1,0.525],[1,0.55],[1,0.575],[1,0.6],[1,0.625],[1,0.65],[1,0.675],[1,0.7],[1,0.725],[1,0.75],[1,0.775],[1,0.8],[1,0.825],[1,0.85],[1,0.875],[1,0.9],[1,0.925],[1,0.95],[1,0.975],[0.025,1],[0.05,1],[0.075,1],[0.1,1],[0.125,1],[0.15,1],[0.175,1],[0.2,1],[0.225,1],[0.25,1],[0.275,1],[0.3,1],[0.325,1],[0.35,1],[0.375,1],[0.4,1],[0.425,1],[0.45,1],[0.475,1],[0.5,1],[0.525,1],[0.55,1],[0.575,1],[0.6,1],[0.625,1],[0.65,1],[0.675,1],[0.7,1],[0.725,1],[0.75,1],[0.775,1],[0.8,1],[0.825,1],[0.85,1],[0.875,1],[0.9,1],[0.925,1],[0.95,1],[0.975,1]];verticalAlign=middle;fontStyle=1;strokeColor=#666666;fillColor=#f5f5f5;fontColor=#333333;fontSize=21;" vertex="1" parent="1">
          <mxGeometry x="320" y="630" width="200" height="40" as="geometry" />
        </mxCell>
        <mxCell id="ZMSztsOyMsakCCSBzYCo-19" style="edgeStyle=orthogonalEdgeStyle;rounded=0;orthogonalLoop=1;jettySize=auto;html=1;entryX=0;entryY=0.5;entryDx=0;entryDy=0;entryPerimeter=0;fontSize=17;" edge="1" parent="1" target="ZMSztsOyMsakCCSBzYCo-24">
          <mxGeometry relative="1" as="geometry">
            <mxPoint x="640" y="320" as="sourcePoint" />
          </mxGeometry>
        </mxCell>
        <mxCell id="ZMSztsOyMsakCCSBzYCo-20" style="edgeStyle=orthogonalEdgeStyle;rounded=0;orthogonalLoop=1;jettySize=auto;html=1;exitX=1;exitY=0.575;exitDx=0;exitDy=0;entryX=0;entryY=0.5;entryDx=0;entryDy=0;entryPerimeter=0;fontSize=17;" edge="1" parent="1" source="ZMSztsOyMsakCCSBzYCo-21" target="ZMSztsOyMsakCCSBzYCo-26">
          <mxGeometry relative="1" as="geometry" />
        </mxCell>
        <mxCell id="ZMSztsOyMsakCCSBzYCo-21" value="FEAT" style="rounded=1;whiteSpace=wrap;html=1;points=[[0,0.025],[0,0.05],[0,0.075],[0,0.1],[0,0.125],[0,0.15],[0,0.175],[0,0.2],[0,0.225],[0,0.25],[0,0.275],[0,0.3],[0,0.325],[0,0.35],[0,0.375],[0,0.4],[0,0.425],[0,0.45],[0,0.475],[0,0.5],[0,0.525],[0,0.55],[0,0.575],[0,0.6],[0,0.625],[0,0.65],[0,0.675],[0,0.7],[0,0.725],[0,0.75],[0,0.775],[0,0.8],[0,0.825],[0,0.85],[0,0.875],[0,0.9],[0,0.925],[0,0.95],[0,0.975],[0.025,0],[0.05,0],[0.075,0],[0.1,0],[0.125,0],[0.15,0],[0.175,0],[0.2,0],[0.225,0],[0.25,0],[0.275,0],[0.3,0],[0.325,0],[0.35,0],[0.375,0],[0.4,0],[0.425,0],[0.45,0],[0.475,0],[0.5,0],[0.525,0],[0.55,0],[0.575,0],[0.6,0],[0.625,0],[0.65,0],[0.675,0],[0.7,0],[0.725,0],[0.75,0],[0.775,0],[0.8,0],[0.825,0],[0.85,0],[0.875,0],[0.9,0],[0.925,0],[0.95,0],[0.975,0],[1,0.025],[1,0.05],[1,0.075],[1,0.1],[1,0.125],[1,0.15],[1,0.175],[1,0.2],[1,0.225],[1,0.25],[1,0.275],[1,0.3],[1,0.325],[1,0.35],[1,0.375],[1,0.4],[1,0.425],[1,0.45],[1,0.475],[1,0.5],[1,0.525],[1,0.55],[1,0.575],[1,0.6],[1,0.625],[1,0.65],[1,0.675],[1,0.7],[1,0.725],[1,0.75],[1,0.775],[1,0.8],[1,0.825],[1,0.85],[1,0.875],[1,0.9],[1,0.925],[1,0.95],[1,0.975],[0.025,1],[0.05,1],[0.075,1],[0.1,1],[0.125,1],[0.15,1],[0.175,1],[0.2,1],[0.225,1],[0.25,1],[0.275,1],[0.3,1],[0.325,1],[0.35,1],[0.375,1],[0.4,1],[0.425,1],[0.45,1],[0.475,1],[0.5,1],[0.525,1],[0.55,1],[0.575,1],[0.6,1],[0.625,1],[0.65,1],[0.675,1],[0.7,1],[0.725,1],[0.75,1],[0.775,1],[0.8,1],[0.825,1],[0.85,1],[0.875,1],[0.9,1],[0.925,1],[0.95,1],[0.975,1]];verticalAlign=middle;fontStyle=1;strokeColor=#666666;fillColor=#f5f5f5;fontColor=#333333;fontSize=21;" vertex="1" parent="1">
          <mxGeometry x="520" y="310" width="120" height="40" as="geometry" />
        </mxCell>
        <mxCell id="ZMSztsOyMsakCCSBzYCo-22" style="edgeStyle=orthogonalEdgeStyle;rounded=0;orthogonalLoop=1;jettySize=auto;html=1;exitX=1;exitY=0.5;exitDx=0;exitDy=0;dashed=1;fontSize=17;" edge="1" parent="1" source="ZMSztsOyMsakCCSBzYCo-23" target="ZMSztsOyMsakCCSBzYCo-35">
          <mxGeometry relative="1" as="geometry" />
        </mxCell>
        <mxCell id="ZMSztsOyMsakCCSBzYCo-23" value="" style="shape=image;html=1;verticalLabelPosition=bottom;verticalAlign=top;imageAspect=0;image=img/clipart/Gear_128x128.png;fontSize=21;" vertex="1" parent="1">
          <mxGeometry x="210" y="-30" width="50" height="60" as="geometry" />
        </mxCell>
        <mxCell id="ZMSztsOyMsakCCSBzYCo-24" value="BP Diagramas" style="strokeWidth=2;html=1;shape=mxgraph.flowchart.terminator;whiteSpace=wrap;fontSize=17;" vertex="1" parent="1">
          <mxGeometry x="720" y="280" width="110" height="40" as="geometry" />
        </mxCell>
        <mxCell id="ZMSztsOyMsakCCSBzYCo-25" style="edgeStyle=orthogonalEdgeStyle;rounded=0;orthogonalLoop=1;jettySize=auto;html=1;exitX=1;exitY=0.5;exitDx=0;exitDy=0;exitPerimeter=0;entryX=1;entryY=0.5;entryDx=0;entryDy=0;entryPerimeter=0;fontSize=17;dashed=1;" edge="1" parent="1" source="ZMSztsOyMsakCCSBzYCo-26" target="ZMSztsOyMsakCCSBzYCo-24">
          <mxGeometry relative="1" as="geometry" />
        </mxCell>
        <mxCell id="ZMSztsOyMsakCCSBzYCo-26" value="MD" style="strokeWidth=2;html=1;shape=mxgraph.flowchart.terminator;whiteSpace=wrap;fontSize=17;" vertex="1" parent="1">
          <mxGeometry x="720" y="340" width="110" height="40" as="geometry" />
        </mxCell>
        <mxCell id="ZMSztsOyMsakCCSBzYCo-27" value="FEAT" style="rounded=1;whiteSpace=wrap;html=1;points=[[0,0.025],[0,0.05],[0,0.075],[0,0.1],[0,0.125],[0,0.15],[0,0.175],[0,0.2],[0,0.225],[0,0.25],[0,0.275],[0,0.3],[0,0.325],[0,0.35],[0,0.375],[0,0.4],[0,0.425],[0,0.45],[0,0.475],[0,0.5],[0,0.525],[0,0.55],[0,0.575],[0,0.6],[0,0.625],[0,0.65],[0,0.675],[0,0.7],[0,0.725],[0,0.75],[0,0.775],[0,0.8],[0,0.825],[0,0.85],[0,0.875],[0,0.9],[0,0.925],[0,0.95],[0,0.975],[0.025,0],[0.05,0],[0.075,0],[0.1,0],[0.125,0],[0.15,0],[0.175,0],[0.2,0],[0.225,0],[0.25,0],[0.275,0],[0.3,0],[0.325,0],[0.35,0],[0.375,0],[0.4,0],[0.425,0],[0.45,0],[0.475,0],[0.5,0],[0.525,0],[0.55,0],[0.575,0],[0.6,0],[0.625,0],[0.65,0],[0.675,0],[0.7,0],[0.725,0],[0.75,0],[0.775,0],[0.8,0],[0.825,0],[0.85,0],[0.875,0],[0.9,0],[0.925,0],[0.95,0],[0.975,0],[1,0.025],[1,0.05],[1,0.075],[1,0.1],[1,0.125],[1,0.15],[1,0.175],[1,0.2],[1,0.225],[1,0.25],[1,0.275],[1,0.3],[1,0.325],[1,0.35],[1,0.375],[1,0.4],[1,0.425],[1,0.45],[1,0.475],[1,0.5],[1,0.525],[1,0.55],[1,0.575],[1,0.6],[1,0.625],[1,0.65],[1,0.675],[1,0.7],[1,0.725],[1,0.75],[1,0.775],[1,0.8],[1,0.825],[1,0.85],[1,0.875],[1,0.9],[1,0.925],[1,0.95],[1,0.975],[0.025,1],[0.05,1],[0.075,1],[0.1,1],[0.125,1],[0.15,1],[0.175,1],[0.2,1],[0.225,1],[0.25,1],[0.275,1],[0.3,1],[0.325,1],[0.35,1],[0.375,1],[0.4,1],[0.425,1],[0.45,1],[0.475,1],[0.5,1],[0.525,1],[0.55,1],[0.575,1],[0.6,1],[0.625,1],[0.65,1],[0.675,1],[0.7,1],[0.725,1],[0.75,1],[0.775,1],[0.8,1],[0.825,1],[0.85,1],[0.875,1],[0.9,1],[0.925,1],[0.95,1],[0.975,1]];verticalAlign=middle;fontStyle=1;strokeColor=#666666;fillColor=#f5f5f5;fontColor=#333333;fontSize=21;" vertex="1" parent="1">
          <mxGeometry x="520" y="370" width="120" height="40" as="geometry" />
        </mxCell>
        <mxCell id="ZMSztsOyMsakCCSBzYCo-28" value="FEAT" style="rounded=1;whiteSpace=wrap;html=1;points=[[0,0.025],[0,0.05],[0,0.075],[0,0.1],[0,0.125],[0,0.15],[0,0.175],[0,0.2],[0,0.225],[0,0.25],[0,0.275],[0,0.3],[0,0.325],[0,0.35],[0,0.375],[0,0.4],[0,0.425],[0,0.45],[0,0.475],[0,0.5],[0,0.525],[0,0.55],[0,0.575],[0,0.6],[0,0.625],[0,0.65],[0,0.675],[0,0.7],[0,0.725],[0,0.75],[0,0.775],[0,0.8],[0,0.825],[0,0.85],[0,0.875],[0,0.9],[0,0.925],[0,0.95],[0,0.975],[0.025,0],[0.05,0],[0.075,0],[0.1,0],[0.125,0],[0.15,0],[0.175,0],[0.2,0],[0.225,0],[0.25,0],[0.275,0],[0.3,0],[0.325,0],[0.35,0],[0.375,0],[0.4,0],[0.425,0],[0.45,0],[0.475,0],[0.5,0],[0.525,0],[0.55,0],[0.575,0],[0.6,0],[0.625,0],[0.65,0],[0.675,0],[0.7,0],[0.725,0],[0.75,0],[0.775,0],[0.8,0],[0.825,0],[0.85,0],[0.875,0],[0.9,0],[0.925,0],[0.95,0],[0.975,0],[1,0.025],[1,0.05],[1,0.075],[1,0.1],[1,0.125],[1,0.15],[1,0.175],[1,0.2],[1,0.225],[1,0.25],[1,0.275],[1,0.3],[1,0.325],[1,0.35],[1,0.375],[1,0.4],[1,0.425],[1,0.45],[1,0.475],[1,0.5],[1,0.525],[1,0.55],[1,0.575],[1,0.6],[1,0.625],[1,0.65],[1,0.675],[1,0.7],[1,0.725],[1,0.75],[1,0.775],[1,0.8],[1,0.825],[1,0.85],[1,0.875],[1,0.9],[1,0.925],[1,0.95],[1,0.975],[0.025,1],[0.05,1],[0.075,1],[0.1,1],[0.125,1],[0.15,1],[0.175,1],[0.2,1],[0.225,1],[0.25,1],[0.275,1],[0.3,1],[0.325,1],[0.35,1],[0.375,1],[0.4,1],[0.425,1],[0.45,1],[0.475,1],[0.5,1],[0.525,1],[0.55,1],[0.575,1],[0.6,1],[0.625,1],[0.65,1],[0.675,1],[0.7,1],[0.725,1],[0.75,1],[0.775,1],[0.8,1],[0.825,1],[0.85,1],[0.875,1],[0.9,1],[0.925,1],[0.95,1],[0.975,1]];verticalAlign=middle;fontStyle=1;strokeColor=#666666;fillColor=#f5f5f5;fontColor=#333333;fontSize=21;" vertex="1" parent="1">
          <mxGeometry x="520" y="425" width="120" height="40" as="geometry" />
        </mxCell>
        <mxCell id="ZMSztsOyMsakCCSBzYCo-29" value="BP Diagramas&lt;br&gt;Landscape" style="strokeWidth=2;html=1;shape=mxgraph.flowchart.terminator;whiteSpace=wrap;fontSize=17;" vertex="1" parent="1">
          <mxGeometry x="520" y="492" width="110" height="60" as="geometry" />
        </mxCell>
        <mxCell id="ZMSztsOyMsakCCSBzYCo-30" value="MD&lt;br&gt;LandScape,&lt;br&gt;lista FEATS" style="strokeWidth=2;html=1;shape=mxgraph.flowchart.terminator;whiteSpace=wrap;fontSize=17;" vertex="1" parent="1">
          <mxGeometry x="650" y="490" width="140" height="60" as="geometry" />
        </mxCell>
        <mxCell id="ZMSztsOyMsakCCSBzYCo-31" style="edgeStyle=orthogonalEdgeStyle;rounded=0;orthogonalLoop=1;jettySize=auto;html=1;exitX=1;exitY=0.5;exitDx=0;exitDy=0;entryX=0.15;entryY=1;entryDx=0;entryDy=0;dashed=1;fontSize=17;" edge="1" parent="1" source="ZMSztsOyMsakCCSBzYCo-32" target="ZMSztsOyMsakCCSBzYCo-17">
          <mxGeometry relative="1" as="geometry" />
        </mxCell>
        <mxCell id="ZMSztsOyMsakCCSBzYCo-32" value="Confluence" style="rounded=1;whiteSpace=wrap;html=1;points=[[0,0.025],[0,0.05],[0,0.075],[0,0.1],[0,0.125],[0,0.15],[0,0.175],[0,0.2],[0,0.225],[0,0.25],[0,0.275],[0,0.3],[0,0.325],[0,0.35],[0,0.375],[0,0.4],[0,0.425],[0,0.45],[0,0.475],[0,0.5],[0,0.525],[0,0.55],[0,0.575],[0,0.6],[0,0.625],[0,0.65],[0,0.675],[0,0.7],[0,0.725],[0,0.75],[0,0.775],[0,0.8],[0,0.825],[0,0.85],[0,0.875],[0,0.9],[0,0.925],[0,0.95],[0,0.975],[0.025,0],[0.05,0],[0.075,0],[0.1,0],[0.125,0],[0.15,0],[0.175,0],[0.2,0],[0.225,0],[0.25,0],[0.275,0],[0.3,0],[0.325,0],[0.35,0],[0.375,0],[0.4,0],[0.425,0],[0.45,0],[0.475,0],[0.5,0],[0.525,0],[0.55,0],[0.575,0],[0.6,0],[0.625,0],[0.65,0],[0.675,0],[0.7,0],[0.725,0],[0.75,0],[0.775,0],[0.8,0],[0.825,0],[0.85,0],[0.875,0],[0.9,0],[0.925,0],[0.95,0],[0.975,0],[1,0.025],[1,0.05],[1,0.075],[1,0.1],[1,0.125],[1,0.15],[1,0.175],[1,0.2],[1,0.225],[1,0.25],[1,0.275],[1,0.3],[1,0.325],[1,0.35],[1,0.375],[1,0.4],[1,0.425],[1,0.45],[1,0.475],[1,0.5],[1,0.525],[1,0.55],[1,0.575],[1,0.6],[1,0.625],[1,0.65],[1,0.675],[1,0.7],[1,0.725],[1,0.75],[1,0.775],[1,0.8],[1,0.825],[1,0.85],[1,0.875],[1,0.9],[1,0.925],[1,0.95],[1,0.975],[0.025,1],[0.05,1],[0.075,1],[0.1,1],[0.125,1],[0.15,1],[0.175,1],[0.2,1],[0.225,1],[0.25,1],[0.275,1],[0.3,1],[0.325,1],[0.35,1],[0.375,1],[0.4,1],[0.425,1],[0.45,1],[0.475,1],[0.5,1],[0.525,1],[0.55,1],[0.575,1],[0.6,1],[0.625,1],[0.65,1],[0.675,1],[0.7,1],[0.725,1],[0.75,1],[0.775,1],[0.8,1],[0.825,1],[0.85,1],[0.875,1],[0.9,1],[0.925,1],[0.95,1],[0.975,1]];verticalAlign=middle;fontStyle=1;strokeColor=#666666;fillColor=#f5f5f5;fontColor=#333333;fontSize=21;" vertex="1" parent="1">
          <mxGeometry x="-200" y="280" width="180" height="60" as="geometry" />
        </mxCell>
        <mxCell id="ZMSztsOyMsakCCSBzYCo-33" style="edgeStyle=orthogonalEdgeStyle;rounded=0;orthogonalLoop=1;jettySize=auto;html=1;exitX=1;exitY=0.475;exitDx=0;exitDy=0;entryX=0.5;entryY=1;entryDx=0;entryDy=0;entryPerimeter=0;dashed=1;fontSize=17;" edge="1" parent="1" source="ZMSztsOyMsakCCSBzYCo-34" target="ZMSztsOyMsakCCSBzYCo-26">
          <mxGeometry relative="1" as="geometry" />
        </mxCell>
        <mxCell id="ZMSztsOyMsakCCSBzYCo-34" value="Jira" style="rounded=1;whiteSpace=wrap;html=1;points=[[0,0.025],[0,0.05],[0,0.075],[0,0.1],[0,0.125],[0,0.15],[0,0.175],[0,0.2],[0,0.225],[0,0.25],[0,0.275],[0,0.3],[0,0.325],[0,0.35],[0,0.375],[0,0.4],[0,0.425],[0,0.45],[0,0.475],[0,0.5],[0,0.525],[0,0.55],[0,0.575],[0,0.6],[0,0.625],[0,0.65],[0,0.675],[0,0.7],[0,0.725],[0,0.75],[0,0.775],[0,0.8],[0,0.825],[0,0.85],[0,0.875],[0,0.9],[0,0.925],[0,0.95],[0,0.975],[0.025,0],[0.05,0],[0.075,0],[0.1,0],[0.125,0],[0.15,0],[0.175,0],[0.2,0],[0.225,0],[0.25,0],[0.275,0],[0.3,0],[0.325,0],[0.35,0],[0.375,0],[0.4,0],[0.425,0],[0.45,0],[0.475,0],[0.5,0],[0.525,0],[0.55,0],[0.575,0],[0.6,0],[0.625,0],[0.65,0],[0.675,0],[0.7,0],[0.725,0],[0.75,0],[0.775,0],[0.8,0],[0.825,0],[0.85,0],[0.875,0],[0.9,0],[0.925,0],[0.95,0],[0.975,0],[1,0.025],[1,0.05],[1,0.075],[1,0.1],[1,0.125],[1,0.15],[1,0.175],[1,0.2],[1,0.225],[1,0.25],[1,0.275],[1,0.3],[1,0.325],[1,0.35],[1,0.375],[1,0.4],[1,0.425],[1,0.45],[1,0.475],[1,0.5],[1,0.525],[1,0.55],[1,0.575],[1,0.6],[1,0.625],[1,0.65],[1,0.675],[1,0.7],[1,0.725],[1,0.75],[1,0.775],[1,0.8],[1,0.825],[1,0.85],[1,0.875],[1,0.9],[1,0.925],[1,0.95],[1,0.975],[0.025,1],[0.05,1],[0.075,1],[0.1,1],[0.125,1],[0.15,1],[0.175,1],[0.2,1],[0.225,1],[0.25,1],[0.275,1],[0.3,1],[0.325,1],[0.35,1],[0.375,1],[0.4,1],[0.425,1],[0.45,1],[0.475,1],[0.5,1],[0.525,1],[0.55,1],[0.575,1],[0.6,1],[0.625,1],[0.65,1],[0.675,1],[0.7,1],[0.725,1],[0.75,1],[0.775,1],[0.8,1],[0.825,1],[0.85,1],[0.875,1],[0.9,1],[0.925,1],[0.95,1],[0.975,1]];verticalAlign=middle;fontStyle=1;strokeColor=#666666;fillColor=#f5f5f5;fontColor=#333333;fontSize=21;" vertex="1" parent="1">
          <mxGeometry x="-200" y="390" width="180" height="60" as="geometry" />
        </mxCell>
        <mxCell id="ZMSztsOyMsakCCSBzYCo-35" value="" style="strokeWidth=2;html=1;shape=mxgraph.flowchart.database;whiteSpace=wrap;fontSize=17;" vertex="1" parent="1">
          <mxGeometry x="390" y="-30" width="60" height="60" as="geometry" />
        </mxCell>
        <mxCell id="ZMSztsOyMsakCCSBzYCo-36" style="edgeStyle=orthogonalEdgeStyle;rounded=0;orthogonalLoop=1;jettySize=auto;html=1;exitX=0;exitY=0.5;exitDx=0;exitDy=0;entryX=1;entryY=0.5;entryDx=0;entryDy=0;entryPerimeter=0;dashed=1;fontSize=17;" edge="1" parent="1" source="ZMSztsOyMsakCCSBzYCo-37" target="ZMSztsOyMsakCCSBzYCo-35">
          <mxGeometry relative="1" as="geometry" />
        </mxCell>
        <mxCell id="ZMSztsOyMsakCCSBzYCo-37" value="Site" style="shape=image;verticalLabelPosition=bottom;verticalAlign=top;imageAspect=0;aspect=fixed;image=data:image/png,iVBORw0KGgoAAAANSUhEUgAAAGQAAABkCAYAAABw4pVUAAAJXElEQVR4nO2dP2zbVh7HvwksXNk2osH0TilECC7OgpGBqpLBLBAWlsdYHnLtpnjNEA/OZao9BZnirakPsIYMtzja0vNgJaMlhAWOGRKeNDiCfIjOoHBx2vJE9e6YQgFyA8WcYpOSaPHPc8IPQMh+JN/74X35/v8eeeL169c4AuMALgGYAZDuHiGA3D3KADYBtJxGcMKhIBkA12CIETKYTQDfASgNe8OwgmQA3Oj+hjinBOAmhhBmGEG+BfDHUS0KAQDcBnC93wX9BBkHsI2wfXAbGcAsbNqXkzY3jSMUwyvSMPJ23OqklSDjCMXwmjRsRLGqsp4gFMMvZADnegMOlpBvEYrhJ2kYef6G3hKSgVGMQvxnFt0ucW8JuRGIKSFAT96bgmQQDvqCJNM9MNYNuBaUJSYFqSnu/fzfV0HbcRSE5OlxIcmkR4zmGoDSGP4/URgoBUn5WKyr6aDtOArLQElIMqNGcwnA+EkQIEbIGy6NwZhCJwYhychbS3w6aDsGIdZVeX5NSrsc7cxJhOMOkkiHgpBF2m5yMSQgQkEIIxSEMEJBCCMUhDBCQQgjFIQwxgZf4gxN72hV5Zdnzu97RZm/Yl2V3bZrWFyYJBwJ1wWpKr88G2VKoaq0p+bXJBctckbrTxcDSxsIqyzicL2E9CIkGVmYZFpepuEGBak5uafqbNB2AF4LMsm0lueSGS/TcANxV5VJESSssggjFIQwQkEIIxSEMEJBCMPTXpYfmDMDYv3nlvby1Ymq0qbNc2aX2yU3HV84loJoekcrVl5U86XGb6tKewo2y9BiXTX+eLALAMimYlKOjyObivE+meqYYyWIpne0/HbjSb70j3Oa3hGc3l+s7PPFyj4SDKUszyUbOT7uOA6vOTaCiHVVXtyofLKn6plR49pTdXZxo8IWJEVeX0h94oJ5rnEsBFm9Xy+tPtjNuB2vWFfTX67+oNEUOdlAjiU2LG5UxILUzAxzLcdGazQ1ppv/a/orqtvG2KLpHVrTO3S/a/yEaEG6YvSt53N8XMymYpFuQ30o8zW9o4l19WlBaqJY2Se2MTchVpDV+/VSv5KR4+Pi8lxyIsFQfQWjqQidTcX4bCqGPVVXFjcqP/Vz6q4q7RrHRvuWKi8hcmAo1lXZrs2gqYi2tcTL6wspIcFQjmZoEwzFbi3x6fWFlGh3zfzaozOa3tEcmuwaRAqy8v0OZRVuiDH9fNRBXo6PCw+/uVCjqcihjNf0Dr1yb6c6SvyjQJwgBakpWjXEphhuVSccG526e+W85dp/QWoKQa3rEyfI6v36hFX4+gL31O26XUgy6eWLkyWrc/lS41c30xoWogQpVvYlq5W7bComeTXdsTyXzHBstGZhC7+n6ooXafaDNEE6VuG3vj4b9zLd5YuTLUt7/rb/dy/TtYIwQV5wB8OEJCM77U05JZuK8QmGOlQaitV93weMxAhSVdo1qxFzjmf/7Uf62c9jh0pDEJtQiRFE01/pVuFCkpnwI31hkvnAKryqtA+1L15CjCBi/eeWVbjX1ZUJx0Yt2ym7B8UriBHECqt63cO0Qr+sQSROUz8FbYPfEC3IcX2zwygQI0ji9IeBzjwHuQWiF3IEYaiPrcL9yqiq0rac4eXYU5/5kb4JMYLYzeAWq/u+TIWLu+qhbm+CoRSaivg6OCRGEMBYgj0YVvhrM+11unuqrlitJgpJpuF12gchSpDcdPz5wTBN79AFqWm7oOQG+VLDcs4qm4pFvEzXCqIEyX4e+71V+Mq9Hc6rVbyq0q7ltxuH3oiUYCglCIc6ogRJMBSb4+OHSoOmd+jFjepTt9PT9I62eNd6cTDHx3fdTm8YiBIEAJbnkhNW4cXKPr+4UXG16lq5t1O1Wp3sejZm3ExrWIgTJMFQrN0qXkFqCm6Ioukd7fKdx5Kdi9Gtr882R03jqBAhSLGyL82vSfLq/XoJsF/FAwxR5tck+airecab4B49t/PR6vp5Bea/Fbhf1sr3O2WzURXrKvZUXVxfSAl3r5z/6MvVHzSrNRKxrqZTN0q9vlkDJwarSruWLzV+HOR4t76QCtQBO1BBup6Jb/VwClJToD+MlG99dXZma2m6Nr/2CHaungWpKRSkJjg2Wstyv/snx0Ypmor8xjyv6Z1fxV31pVhXz3TbisAc4IYlEEE0vaOt3Nup2j2t+e3GDBePijk+LgwSBTDe/jDIh/e44HsboukdbX7t0fNBVcfiRkUoSE2RY6NTlZszEJKM7IU9V2cnyl7FfRR8LSGmGMM+zYsbFYGLn6pxbHRqa4lP57cb5dUHu2k3vNU5Nlq79dVZXUgyM/NrkmyGmx2LQeypuid555sgVaVdu3zn8Ud7qu6oaplfe3Rma2m6xrHRqauzEzO5L+JafrtROurrMDg2WruamfjRbveUF/tQnOCLIFWlXes6MTt+sjW9Qxcr+09Mr0WaitDLc8nM8lwSxcq+JO6qL6tKm7ZbzKKpiMaxp54Jk0wrm4p92o2H2PbGc0HEuipfvvP4s1GqGZqKnLAKN7cZHEzPuGeM6mY+DQfvJt5a4mWn9iVOU5NO77HDU0GK1Refrj7YHelpzPFx8ersxNCvQx/VMz7o7dOe9rJG7YpenZ0oBz1Q85vAR+p2rC+kxBwfJ+pDAX7gegkpSMrIrp9dMd6rkmHiagkZZpNmP2gqot29cv6ZkGTeSzEAFwXJbzfKB+elnNCzQyrtlk3HEdcE0fTOkT7MDhgLQnevnP9PkLtfScG1NiT3BTtptYlyEBwbrT1cvnAqFMPANUGMLcfTz52IwrHR2tbS9Bm/fZ9I5iSM77G6AsdGp9YXuKGcEXJ8XHz4zYWpUIy3kMdgCJJ2K8beBaJ+mItLhJAO2oAu8kkA5aCtCHlDeQzAJoA/uxUjTY1R5oLPwbfxkLQQ1Id0gGlvml+L/gs8+sBkfrtR3vuXDmGS+YDkV+sRwCaAP5iCZBB+ujtoZgGUzG5vqXuEBEMJFt9TvxmEJSEAevK+V5ASgNt+WxKC2+ipncw2pJcnIKdf/q4jAzjXG2A1dTILF0fvIbbIMPL6LawEaSEUxWtkGHncOnjCbnKxhVAUr5BhIwbQf7a3BaN+u+2yQe8zt2HkacvugmGm36+jO2hxw6L3lBKMPLw+6EKrXlY/MgCuwaNplneQTQDfwcHD7FQQk3EYoszA6CKnjxLJO4jcPcowxGg5jeB/NZeZ9+4RgLQAAAAASUVORK5CYII=;fontSize=17;" vertex="1" parent="1">
          <mxGeometry x="520" y="-50" width="100" height="100" as="geometry" />
        </mxCell>
        <mxCell id="ZMSztsOyMsakCCSBzYCo-38" style="edgeStyle=orthogonalEdgeStyle;rounded=0;orthogonalLoop=1;jettySize=auto;html=1;entryX=0;entryY=0.475;entryDx=0;entryDy=0;dashed=1;fontSize=17;" edge="1" parent="1" source="ZMSztsOyMsakCCSBzYCo-40" target="ZMSztsOyMsakCCSBzYCo-32">
          <mxGeometry relative="1" as="geometry" />
        </mxCell>
        <mxCell id="ZMSztsOyMsakCCSBzYCo-39" style="edgeStyle=orthogonalEdgeStyle;rounded=0;orthogonalLoop=1;jettySize=auto;html=1;entryX=0;entryY=0.55;entryDx=0;entryDy=0;dashed=1;fontSize=17;" edge="1" parent="1" source="ZMSztsOyMsakCCSBzYCo-40" target="ZMSztsOyMsakCCSBzYCo-34">
          <mxGeometry relative="1" as="geometry">
            <mxPoint x="-370" y="340" as="sourcePoint" />
          </mxGeometry>
        </mxCell>
        <mxCell id="ZMSztsOyMsakCCSBzYCo-40" value="Squad members" style="shape=umlActor;verticalLabelPosition=bottom;verticalAlign=top;html=1;outlineConnect=0;fontSize=21;" vertex="1" parent="1">
          <mxGeometry x="-400" y="320" width="30" height="60" as="geometry" />
        </mxCell>
        <mxCell id="ZMSztsOyMsakCCSBzYCo-41" value="Inventario de Aplicaciones, Integraciones" style="rounded=1;whiteSpace=wrap;html=1;points=[[0,0.025],[0,0.05],[0,0.075],[0,0.1],[0,0.125],[0,0.15],[0,0.175],[0,0.2],[0,0.225],[0,0.25],[0,0.275],[0,0.3],[0,0.325],[0,0.35],[0,0.375],[0,0.4],[0,0.425],[0,0.45],[0,0.475],[0,0.5],[0,0.525],[0,0.55],[0,0.575],[0,0.6],[0,0.625],[0,0.65],[0,0.675],[0,0.7],[0,0.725],[0,0.75],[0,0.775],[0,0.8],[0,0.825],[0,0.85],[0,0.875],[0,0.9],[0,0.925],[0,0.95],[0,0.975],[0.025,0],[0.05,0],[0.075,0],[0.1,0],[0.125,0],[0.15,0],[0.175,0],[0.2,0],[0.225,0],[0.25,0],[0.275,0],[0.3,0],[0.325,0],[0.35,0],[0.375,0],[0.4,0],[0.425,0],[0.45,0],[0.475,0],[0.5,0],[0.525,0],[0.55,0],[0.575,0],[0.6,0],[0.625,0],[0.65,0],[0.675,0],[0.7,0],[0.725,0],[0.75,0],[0.775,0],[0.8,0],[0.825,0],[0.85,0],[0.875,0],[0.9,0],[0.925,0],[0.95,0],[0.975,0],[1,0.025],[1,0.05],[1,0.075],[1,0.1],[1,0.125],[1,0.15],[1,0.175],[1,0.2],[1,0.225],[1,0.25],[1,0.275],[1,0.3],[1,0.325],[1,0.35],[1,0.375],[1,0.4],[1,0.425],[1,0.45],[1,0.475],[1,0.5],[1,0.525],[1,0.55],[1,0.575],[1,0.6],[1,0.625],[1,0.65],[1,0.675],[1,0.7],[1,0.725],[1,0.75],[1,0.775],[1,0.8],[1,0.825],[1,0.85],[1,0.875],[1,0.9],[1,0.925],[1,0.95],[1,0.975],[0.025,1],[0.05,1],[0.075,1],[0.1,1],[0.125,1],[0.15,1],[0.175,1],[0.2,1],[0.225,1],[0.25,1],[0.275,1],[0.3,1],[0.325,1],[0.35,1],[0.375,1],[0.4,1],[0.425,1],[0.45,1],[0.475,1],[0.5,1],[0.525,1],[0.55,1],[0.575,1],[0.6,1],[0.625,1],[0.65,1],[0.675,1],[0.7,1],[0.725,1],[0.75,1],[0.775,1],[0.8,1],[0.825,1],[0.85,1],[0.875,1],[0.9,1],[0.925,1],[0.95,1],[0.975,1]];verticalAlign=middle;fontStyle=1;strokeColor=#666666;fillColor=#f5f5f5;fontColor=#333333;fontSize=16;" vertex="1" parent="1">
          <mxGeometry x="280" y="120" width="200" height="50" as="geometry" />
        </mxCell>
        <mxCell id="ZMSztsOyMsakCCSBzYCo-42" style="edgeStyle=orthogonalEdgeStyle;rounded=0;orthogonalLoop=1;jettySize=auto;html=1;exitX=0;exitY=0.5;exitDx=0;exitDy=0;entryX=1;entryY=0.5;entryDx=0;entryDy=0;dashed=1;fontSize=16;" edge="1" parent="1" source="ZMSztsOyMsakCCSBzYCo-43" target="ZMSztsOyMsakCCSBzYCo-41">
          <mxGeometry relative="1" as="geometry" />
        </mxCell>
        <mxCell id="ZMSztsOyMsakCCSBzYCo-43" value="DrawIO" style="shape=image;verticalLabelPosition=bottom;labelBackgroundColor=#ffffff;verticalAlign=top;aspect=fixed;imageAspect=0;image=data:image/jpeg,/9j/4AAQSkZJRgABAQAAAQABAAD/4gKgSUNDX1BST0ZJTEUAAQEAAAKQbGNtcwQwAABtbnRyUkdCIFhZWiAH4gADABQACQAhAAJhY3NwQVBQTAAAAAAAAAAAAAAAAAAAAAAAAAAAAAAAAAAA9tYAAQAAAADTLWxjbXMAAAAAAAAAAAAAAAAAAAAAAAAAAAAAAAAAAAAAAAAAAAAAAAAAAAAAAAAAAAAAAAtkZXNjAAABCAAAADhjcHJ0AAABQAAAAE53dHB0AAABkAAAABRjaGFkAAABpAAAACxyWFlaAAAB0AAAABRiWFlaAAAB5AAAABRnWFlaAAAB+AAAABRyVFJDAAACDAAAACBnVFJDAAACLAAAACBiVFJDAAACTAAAACBjaHJtAAACbAAAACRtbHVjAAAAAAAAAAEAAAAMZW5VUwAAABwAAAAcAHMAUgBHAEIAIABiAHUAaQBsAHQALQBpAG4AAG1sdWMAAAAAAAAAAQAAAAxlblVTAAAAMgAAABwATgBvACAAYwBvAHAAeQByAGkAZwBoAHQALAAgAHUAcwBlACAAZgByAGUAZQBsAHkAAAAAWFlaIAAAAAAAAPbWAAEAAAAA0y1zZjMyAAAAAAABDEoAAAXj///zKgAAB5sAAP2H///7ov///aMAAAPYAADAlFhZWiAAAAAAAABvlAAAOO4AAAOQWFlaIAAAAAAAACSdAAAPgwAAtr5YWVogAAAAAAAAYqUAALeQAAAY3nBhcmEAAAAAAAMAAAACZmYAAPKnAAANWQAAE9AAAApbcGFyYQAAAAAAAwAAAAJmZgAA8qcAAA1ZAAAT0AAACltwYXJhAAAAAAADAAAAAmZmAADypwAADVkAABPQAAAKW2Nocm0AAAAAAAMAAAAAo9cAAFR7AABMzQAAmZoAACZmAAAPXP/bAEMABQMEBAQDBQQEBAUFBQYHDAgHBwcHDwsLCQwRDxISEQ8RERMWHBcTFBoVEREYIRgaHR0fHx8TFyIkIh4kHB4fHv/bAEMBBQUFBwYHDggIDh4UERQeHh4eHh4eHh4eHh4eHh4eHh4eHh4eHh4eHh4eHh4eHh4eHh4eHh4eHh4eHh4eHh4eHv/CABEIAgACAAMBIgACEQEDEQH/xAAbAAEAAgMBAQAAAAAAAAAAAAAABQYDBAcCAf/EABoBAQADAQEBAAAAAAAAAAAAAAADBQYEAQL/2gAMAwEAAhADEAAAAeygAAAAAAAAAGLz3KgIeu7Lvp8/w13bdtKrOPqn9eIc00l40Ef3v+40S+xAJPi07tJdEPRd3lubt5emKRMWPFPsWWx4w98AAAAAAAAAAAAAAAAAEJDJNxNS0KK2m4bypbQIZAAAAAAAAAPUzCJo75Lct37qr6GhJu9qQmjAAAAAAAAAAAAAHjx7jYKu0VtIRxnrkI/sAAAAAAAAAAAABIxyT46BJcusWhpre8e72pD0AAAAAAAAAAIOGTdpOr4yehCu7QAAAAAAAAAAAAAAAANy78892PF09BzmszwTRgAAAAAAACr883upGO0ocs4AAAAAAAAAAAAAAAAAAC2VN0wdSVa07HNB0wgAAAAACDhk1qkYzThyzgAAAAAAAAAAAAAAAAAAAALZU3TB1JBzm0zATRgAAADx40+f7WljtKFd2gAAAAAADb+/nUXDas+Gir0+vmir0KKvQoq9Cir1pfH1UmfBWd4fPoAAAAAAHvoHPNyx4ujPHvY5oPQAACoTtAobb4M1eAAAAAAAAbHRKzbNVQBc1gAAAAGpzvp9CpLaKefWYvA8AAAAAAAWO38uv+lo5IX1SAAISGSsxxhtWEf2AAAAAAABbLNWbNs8yFhxgAAAAKNeaNX99Y3ND3ldJvPPrn8DwAAAAAAkY5J89SQk3ucmE0YDnltoecugz9wAAAAAAAABbLNWbNs8yFhxgAAAAKNeaNX99VGZ0vvc0Pcfm8+fefwPAAAAAAG/0Plt80FPLDR0oxee02E9ecHrQhkAAAAAAAAAtlmrNm2eZCw4wAAAAFGvNGr++qjM6UD3ux/uPzefPvP4HgAAAABNQvqaPqDDm3mSQE/SK7shBjtKAAAAAAAAABbLNWLPs8yFhxgAAAAKNeaLX99WGZ0oAHvdj8kfm6+fefwPAAAAAFzn6Rd9jmnM+gc5ru0M/cAAAAAAAAAAS185bZ72ptbz60tGHoAAAYvGTl0tWM/oAqrQAADJuR+SPzdfPvN4AAAABm6Zy3ougp9Ck2mrcfUFX3AAAAAAAAAACSk+LFPG4yqq2HlfF3ZmmoL7caY6DYuTdV0OfyU25Y+rl5A3NPJ6sPn6AAAAybkfkj83Xz7zeAAAALtSbTZ8OrAS8RzzBydAAAAAAAAAAH3oFduelpBFXdXV6z9+ZHWBFKAt9Q9zwdgaO9rcpXue9j5rS3MMKW5AAAAAybkfli83Hz7z+AAAJ6Bl+vnxRu/oR/YQSgAAAAAAAAMuK3dfPO5zbZZzK0UGkuwprgAACd6Nxzo93SzkdIrin495tVVyWsCGYAAAADLtx+WLzcfPvP4AAko3fniaElGgQSgAAAAAAAAbvRIqW2GbYstJ64a3rGS1YeegAAN/QfXz2H1Ubdrcng5X1ur8fZRBnNEAAAAABl3I7LF5uDn8Ab+hJTxZYifgJPgOToAAAAAM8jPFDplJ8QyZENNfLd3cm2NVQaHLbtA0F9CvfiptQ89AAAGX3x1ShWK4qLL8+r2j5fGdNqOa0cAn3N0wCfEAnIn4+8IilAAAy7kdli83Bz+JeInuvn26tdqT0whV9wAAACZh+lWvBk9mtzgegAAANPmvVq9W2PPRm9GAABKdH0ZbT5kO/hAAAAYM7z3mcR1Hl2Y0ocPcAABm247NF5t2mrXXr4JDnXUuZ9vLhGfuAAAANnpPN+kaWjC+qQAAAAGlu6cf3ygY3YgAAdg9+fW1xge+AAAAAOOdj45SXQUl0AAABm6hzHrdxTKRd4Ds4aYMdpQAAANrpHN+kaWjC+qQAAAAGnuacf3ygY3YgAAdh9efW1xYegAAAAHHOx8cpLoKS6AAAAsPQq1ZdRmGLK7ePl/mbhMHrQhkAAA2ukc36RpaML6pAAAAAae5px/fKBjdiAAB2H159bXFh6AAAAAcc7HxykugpLoAAB78WCWK+ZzYZEPfImh9S55nLrQGfuAAANrpHNuk6WjC+qQAAAAGnuacf3ygY3YgAAdh9efW1xYegAAAAHHOx8cpLoKS6AAAdIpPUbqmC8pAEJNoZOWpGOw2sCP6AA99M5hZLittw1efAAAAAQkvzbg7okZjTAAAdTkOddE1WW+js5AAAAB8NTlFiruZ0gV9gAAJX7+LbYTXZIJYwAI2gdRqFDbVwZq8AAA3pGA17DntCnOr4uKnC4qcLipwuOOpHu5pnJ1B8/QAACQj318273TnXyXFThcVOFxU4XFThb4KNRyBzdIAAH3plcvN9RBcVAAADx7eOc6fQ+f47S+BXdoAAGvrSOvP7rCb0AAAAAAAAAAAAAAAAABv6nTe7i3shp8wHoAAABBziGTlq21LF6cOacAADX1pHXn91hN6AAAAAAAAAAAAAAAA+/LtPBt2I1WWCWMAAAAABVrS5puWrbUsdpQ5pwAANfWkdaf3XE3oAAAAAAAAAAAAAB9us8GO4mozATwgAAAAAAAIOcQycw8dDpGT0OmK7tAAA1teR1p/dcTegAAAAAAAAAAAMm30Lu4o+xGjzgSxgAAAAAAAAAPHt4qFd6jG0Vtz9Ix2eugj+gANbXkdaf3XE3oAAAAAAAAAlfv4i7TY5a7pceQt6gPQAAAAAAAAAAAACEm0MnPNDqUTRW1DTUPS2nkQyAa2vI60/uuJvQAAAAAD3OyxV+Su03a1desJb1ASxgAAAAAAAAAAAAAAAAMOZ57AQ93V3ZzPD1LSru3nS7aXF1U3Xt8f5PAJbGkjUl7IpN7UkdaXGQmh59sdM3+vl57O2V3cODOdvGHvgAAAAAAAAH//xAAqEAABAwMBCAMBAQEBAAAAAAAEAgMFAAEwQBAREhMUFTRQBiAyITEiJP/aAAgBAQABBQLUuFDopcoPalS1KlX71eRKvVziq6wqusKqxxVWkS7UmVftSZakSg96bKHX69xxtuz0oymnZMhVOOuOZ23XG6akyE0zKMqptxty3qCDx2qfkn3KVe6r6RN7puxJPt0PIDu+lKkWWqILff1Y5b7FCyLLvoSzGR6KMeI14pjw9CGMka1a0oSZJKV6MKSUikLStOpLKbGSUS4Qr0gpLg6hCmyU6eQPSzS1KWr0yFKQqPPS9ppI/h9XGn8WkkzvWxh2ilTeH18WbxaCUM5KfYRZnOTlNIsMytSlr9ghSkLBIsSzjcUlCDH1EPaIYd0hTUU1a3bRa7aLXbRa7aLXbRa7aLXbRa7aLXbRa7aLT0Snc+y4yvRBvqHebUlaMUwTxL0Q7V3nmWkMt5C2EENLTdC9FDk8C8MiR04+jgUf95p5PLOtffbRRxHUMYJB/qCNHA/jN8j8hN917X320Me/05H3l3+UPpIH8ZvkfkUm+69r77aGIf5o/wBj3ueTpIH8ZvkfkbE33XtffbQAPcgn6yr3KF0sD+M3yPyNqVcN7X36GKe5ov0mHeYVpYH8ZvkfkfRKuG9r79BDu8sra8uzbSr3UrSwP4zfI/I+qVcNWvvzpvdKmV2ca2TbnCPpoH8ZvkfkfZKuGrf3PCOcQ+yZc4i9NA/5m+R3/wDT90K4at/c0M5wl7H18x7TRT1mSst77rSL/UF4EK4at/crC+W9Ry+ATUASNkpSpK7YnXG2kyknz7YkK4at/coK+MSaVuE1MOPy2tk6Zdu3VE11RNdUTXVE1CF3fZ2fIBcqFcNW/uSFVvEnlamOH6gjYS8lhh5xTrv0EeUO+0tLrdOIS4gxhQxGRCuHJAqqcvvK1EeP04+yeK5r32+PlblbJwXnD5UK4ccJfcVL33naeHH5juyUJ6Ub7pVdKgSLEjbJYXpicqFbsURfcdJ+dpmkKccHaSyzslCeqKwQxXTk7JEaxQ17XtfKhW7DGedIebpoUfcnZOlcpnFDFdQNsnxeBzMhW7BH+bIebpQmLkEJtZNqecS00S8p9/ECRcYlN7KTT7SXmSGlMPZkK3feP82T87SxY/IH2T5XEvJ8fK3p2TwvMazoVu+0Z50vbcdpIkfnP7DyLDDKvdSsjS1NOCvJIYq9t9pIbpSc6FbvrEW3nTltxWVppx29o0q9dtKrtpVdtKrtpVdtKoRmzDGyVFMKfXFmppaVIVibbW4pMUbeogcsVWyUE6oftJldpMrtJldpMrtJlKijbU6240rChW76Qlt5U8nLGh9QpCUoTjLGaJQYOsV/BHCKLeHZbYbxvNNvIkw1CO4UK3bYFNTSd4mO1t92G7NM5Z5mzgeCJZsyDlk2eeFiQrdshE7hDkcYmMXysx/9BwN/xvLf/MaFbqBRwCU+jlvYhPKzHeFgR+NSOjmv7JlvhLxCeVmO8LAj8amBb4ztk23xD4hPKzHeFgR+NT8fa4RdjyLONKtdKsInlZjvCwI/GoSm6lDt2aY2zDXLKwieVmO8LAj8aiCY5pn0lWeaLhE8rMd4WBH41EMxyQ/qezyCcAnlZjvCwI/GnjWOoL+0uxzR8CFXSttVloyzbtmwMEc7Z0LKa7yRcMGNyRvvIMdORgijLN5XFobRJl3LfwRBvTOJvZVsd72taYO6heCMG6krBIj9QPhZNJHtabvXfK75XfK75XfK75XfK75XfKXNubiSXyL4hTCBqTNr3d8rvld8rvld8rvld8rvld8pU2rcWaQTht/bxYvTDYZgbgXhcR6uCE414nEpWgxhQ72FxHqQRlFPtIS23jOHsSytKkLwuI9O2hTi44VIrGWUD5ycTiPTQ4PTozyoXFjcR6SGj+HRSYONxHooiO0kkBxY3Eegio3h00gAl6lpUhWFxGtbQpxcZGpH1BYrZKShnB1YXEasMV0pYIbQqdStCVpNjVIxOI1Fv7QESpdNoQ2jWFhskUUG8PhcRpgwXyaCAYG9CVHMu0QI+xgcRoxQiCKDimGfSkR47tPxr7dKtdN/q4jOlKlXGiiXaFjBmfUuNNuWei2VU7GEJpxpxv6OIxtMuu0zEFLpiHYTTTLTVvXOCjrpcWPelRNKiyLU5FF1eONtXQGV0BlWjjb1aKNvSYYm9IhKbhxU02EK3qv/xAAyEQACAQIDBQUIAwEBAAAAAAABAgMABAURIBITITAxFTJBQlIQIjM0QGGBsRRRcUMj/9oACAEDAQE/AeUAT0qPD538MqTCR5mpcOgHhQtIR5a3EfpFbiL0ijaQny02HQHwp8JHlapMPnTwzogjr9HHE8pyUVDhY6yGo4Uj7o5ckKSd4VNhY6xmpIniOTDn5Z1bYaT70tIioMlHPdFcZMKucNI96KssuZFE0rbK1a2SQcfH6O6skn4+NSxNE2y3KggaZtlagt1gXJfpZ7dJ1yap4GhbZbkRRNK2ytW8CwLsj6e4gWddk1LE0TbLautWVruE49eSzBRmabE4BXakP3rtSH712pD967Uh+9LiUBoEEZjk3trv04daIy04bbZnetysTmLSbHgNeFzHa3fKxK2yO9XRFGZXCikQIoUcq/8AmG14b8wOU6B1KmpYzE5U+3C4eBkPLv8A5hteG/MDl4pDwEg9gGZyqGPdoF5d/wDMNrw35gcuWPeIVojI5Vh8e3OPtzL/AOYbXhvxxzMQj2Jz96wlODNzMQtGf/0TUBn0rDrQxe+/XmYsnBWrDlygHMdwiljU0plcuaw223j7bdBW7T+q3af1WI226faHQ1bTGGQNSsGGY5mIrnAatBlCvMxO4zO6FIhdgoqGIRIEHtuIRNGUNMpU5GsLuP8AkfxzLsZwtUHw1/zl3M4hjLUSSczWF2+Q3p04pb/9R+aRyjbQqCYTIHHLn+G3+VB8Nf8AOXf3G9kyHQVbQGeQLQAUZDSyhhsmriEwyFDWG3G7fYPQ8uf4bf5Voc4V1vNGneNfyofUK/lQ+oVeXqCPKM8T7MPMMScWGZ1E5ViO5lTNWGY9lrfI0fvnjX8uH1Cv5cPqFJNG/dOu7OULVhzZwDViFyYUyXqa66sPumjcIeh0310ZXK+A1AkcRVhcGePj1GrEWygNYS/Bl1Yt3l1xd8aT114R5/xqxZ+CrWHybE4++rFu8uuPvjSdeEef8asQk25z9qByOdQybxA2nFu8uuPvjSdeEef8aZpN2hY0Tmcz7MLm4GM6cW7y64++NJ14R5/xpxWbgIx7YpDE4YUjh1DDRiVuZE2l8NdhbmWQHwGm8tzDIf614dbmKPNup0O4RSxqaQyuXOjDbnI7ptL2kMhzZa7Pt/T+67Pt/T+67Pt/T+67Pt/T+67Pt/TSqFGQ0siuMmFdn2/prs+39P7rs+39P7rs+39P7rs+39P7qO0hjOarpxO5zO6XT0qyut+nHr9Te3W4Th1NE56opWibaWredZ12h9PcTrAm01SytK203IgnaFtpaguFnXNfpZ7hIF2mqedp22m5UUrRNtLVrepPw8fo7q9SDh1NSytK203MByq2xIj3ZaR1cZqee7qgzY1c4mT7sVE58+OV4jmpqHFB0kFRzJJ3Ty5Jkj4samxUdIxUkzynNz9GCR0qPEJ08c6TFh5lpcRgPjS3cJ81b+L1Ct/F6hRu4B5hTYlAPGnxYeVakxCd/HKiSeJ5f//EADQRAAECBAIGCAYDAQAAAAAAAAECAwAEBRESIBMhMDFBUhAVIjJCYXGBFDM0QJGxUcHwQ//aAAgBAgEBPwHZEgC5h2qyzfG/pDldPgTC6vMq42hU9MHxmPiXuc/mPiXuc/mEz0wnxmEVeZTxvDddPjTDVVlnONvWAQRcfZvPtsi6zaJitncyIdmHHjdZvs2n3GTdBtEvWzueEMvtvC6Dfbk21mJysBPZZ/MOOLcViWb7dtxbasSDaJOsBXZe/MA31jaPPoYTiWYnai5Mm25P2clUXJY23phl9D6cSDspmZRLoxKiamlzK8SvtZWaXLLxJiWmUTCMSdg+8lhBWqJqaXMrxK+3lZpcsvEmGHkvoC05ibazFRnTMuau6NihClnCmE0aZI4COpZjyjqWY8o6lmPKOpZjyhdHmUi++FJKTY7GnTplnNfdMA31jLWJzCNCn32VGlwlrS8TnrEqFI0o37KjzmIaFXtkfeDLZWeEOOKcWVq47Kl/So/3HPU/pzC0X2LbhbWFp4Qw8HmwscemtzGsMjZ0v6VH+456n9OehaL7GiTGssnoJAFzD7pecKzx2dL+lR/uOep/TnpWi+wYdLLgWOEAhQuIqrujlj56tpS/pU/7jnqf05yLRfYUp3SSw8tUV1zWlG0pM+loaJzdF75Sbb4qM2HewjdlWi+ehOa1IirrxTJ8to02p1YQneYl2UsNhCYqUzo0YE7zGkX/ADGkX/MU6Z0reE7xEywH2yiFJKTY5lovrGakLwzI84nlYphfrtKNKWGmV7Q4sNpKjDzpeWVnpl3iy4FiEqChiEVSW/6j3zrRfWMsirDMI9YmfnL9Ts5OWMw6EQlISLCKpM3OiGWlTP8AyPtC0BaSkw+yWVlBzrRfWMkt85PqImfnL9Ts6XKaBq53mJp8MNlUElRucqVFBxCJd4PNhYipS2kRjG8bBaL6x0y3zk+oieThmF+uduXdc1oSTHwMxyGPgZjkMU+nLU7d1NgOioB51epJsMwF4pweaXZSTY9E1IrQ52BcR8I/ymPhH+UwtlxHeFsq0X1jokU4phHrFXRhmT55qVJiYcurcIAtuzVCVS4grG8ZZGVS0gK4nMQCLGJ+WDDnZ3HKtF9YikIxTI8orretK81C7is7vcOUbs9Y8Hv/AFmo7XaU5FVa0ksfLXmoXcVnc7hyjdnrHg9/6zU5vAwPOCARYw+0WXCg8MtC7is7ncOUbs9Y8Hv/AFlZbLqwgQBYWHRW5fWHhloXcVnc7hyjdnrHg9/6y0ljWXT0vsh5soPGHG1NrKFcMlImksuFCtxzz8wGminicslMB5sfyM9RmA85ZO4ZEIK1BIhloNICBkrEniGmT75WKg+2MIVHWMzzfqOsZnm/UdYzPN+o6xmeb9QahMc0KUVG5ypWpBukx1hMc0dYzPN+o6xmeb9R1jM836jrGZ5v1Dk284LKVlpctYaVWUi+oxUZIyzmrunKhfA/aSUrp169wgC2Z9lL6ChUTUquWXhVlQvgfspeXU+vCmGmktJwp2EzLImEYVRNSq5ZeFWVC+B+wl5db6sKYYYSwnCnZPMIfThWInac5LG+9OVC+B20rJLf17hDTSWk4U7Qi+oxOUcK7TP4hxtbasKxbIhfA7NCFLNkiJalgdp2ALbd5ht4WWLxMUQ72TDrDjJssW6UL4HYNsrdNkCGKSd7phplDQsgfZkAixh2lSznC3pDlCPgVC6RMp4XgSswnUpBjQO8pjQO8pgSj58JhNNmDwhFIPjVDdOYRwvAAGobP//EADkQAAEBAwcFEAMBAQAAAAAAAAECAAMREiEiMDJAcRAxQVJhBBMgIzM0QlBRcoGRoaKx4WJzkhSC/9oACAEBAAY/ArzSfJaaWrwai58y0yUBrYHg3LFuWU3LKbli1sHwadKC1Jz5Fp5afBqL5PV8VrCcW4sFfo1GSjBqbxSsTX0Hik4FqUleLcYCj1aKFhWHVMIy1dgaCOLGxoqJJusUkgtBfGDa0IyFdiupYI4xWzM1JU3YL3RVN2FoL4tXp1DAmUrVDQJgnVF/mMU6paAMlWqb7KWYANIcURraeo5D+knW0tKQQReqU6tCWiszaB1LFBm0hqMytKbxId0nnwxUoxJ6nCkmBDb28ovPm7F04M+lXVYdPzPoVdC5cnvK6tDl8e6q5Fw6M/SPV4cPTP0TcN7QeMPp1jvbw8YPWuldI2QxUoxJ6xCkmBDSukLQrCtRgAxWc2gXODsYnQG4x4pR2TNZV5tZPm1k+bWT5tZPm1k+bWT5tZPm1k+bWVebcU8IP5NIeJgbmFjNpHawWkxBq94QZhauaXadLB2gQArShXgexlIVnSYG57ws0VWcaqItGZN0ePOwQrwsdNM90ibYmVUkiyJk3R7iK933boD0TMqokC0v4ur3EV7vu3XezaR8cNStGYXV7iK933bqlejMeEYWlTC7PcRXu+7dgDaRMeDIGZE12e4ivd927SDmXNwFLOgMVHObs9xFe77t2ChnDJWNIyh3rm7vcRXu+7dy71Dlk6ghd3owr3Y/C7ydcQyrX2m7iVZVMa6JZbwWcycLuhfYY5HivxvId7o8FNKSoKHaKuU8WEjaxcuIh3pOteXavxaGsq9b8q0vNhlDh0opWZ1EaG5w+/stzh9/ZbnD7+y3OH39li6eKi8R26RlG6kjYu9Q1VM6TibyAbAnVlU9VmSyni7SjwUvU6PVkvEGKVCIyFCxFJECynStGY9ovL1OBZI7E3kA2jOrLvCbLvPjwzuVZzzoy76kU3fqLyR2pZXheN+UKKM2OUqFtUyagKSYEThkvRn6Q25aI4tc6a7ZVI8WeY3dLtOcsl2nRlKhYTMmpkqPFvJjlKOlnTi0CIEV2ypdYs9xu/8AoUJzZy7wk0nmfCrkqPGImOX/AEoFFdrGv2VDrvM9xuwRo6WDACYDIp4swSkMp6rOqrS9GbpDYwUkxBnGRTpeZQZTpedJr9nDdd5nmN2iq2uc5RuZBmE6607lWc06Mv8AoQKSLWFw2cJ1iyvC6y1Cgj5yqeacycWKlGJOetS8QYKSYsl6nT6ZIFijomdOFw2cFHiyT2proO0FTWAP+mzJ82zJ82zJ82zJ82zJ82S7HjjlohO9pzTtyUcFBpK0lJ7DVyXaFKOwNyYGKgykPAN7VtzHLAcomdLWUf01lH9NZR/TWUf01lH9NyYOCg0l4hSTtFVs4BPYlnSsRWy18mPVglAAArJLxOB0hi7X4HtqZOZAtFpDpISKyQ9SFBu12qyarZleqwDR1VVkAyXY0Cu3zpO6l32qEo1zxEJwIpxq4aMkrWUzxP41jrvivf8A6zUpGy9QOZnSfxyLR2Grdd8V7/8AWr4qRhekO9ZUMsrXEat13xXv/wBavipGF6l6ECOUPNQ1brvivf8A61fFSML0p7pWcqkHSGKTnFU674r3/wCtXxUjC8hIzlkOx0RDgSxmXPVOu+K9/wDrV8VIwvMs5nc/BMLSJxVOu+K9/wDrV8VIwvIJtLpHhKTozipdd8V7/wDWr4qRheEo6OdWHDli0j4qQoZwYsFpzERrlDSuiKl0r8YGuePOwTY1W+KFJ58VBHRM6aneHpgnonsrStaglI0tETITZFTIeckr0aKTEGsiTANvTvkk+pqQk2BOqpIFoTpqqCpSdVTT7mH9tzb3/Tc29/03Nvf9Nzb3/Tc29/03Nvf9Nzb3/Tc29/03Nvf9NQcJSdpi0Xqydmir4tdHVOZqW5wTsVBube/6bm3v+m5t7/pube/6bm3v+m5t7/pube/6bm3v+m5t7/pqO5wDtU0Hi6OqM1TBgDbVOqq39Aom1VRHVf8AoWKKbO01ZQoRBYoObQaqI6pDsZukexghAgkZqyT0hZLFKhAiqiOpwhAiotJ6RtGu3x2OMHrVxHU2+vBxp9LgX7oT9IVcR1IN0PxP0U3IvnI7yauI6iG6N0DupuheuBPpTVxHUAfboE/RTdt8d0XnyxSoQIqoi+hCEkqLB49gp78XilMrQpoLE2g1URe4OxNpVoDUZ1aVXqSsAgtLcUk6umqiLxAMF7oop1dLBCEhKRoF9iRJVrBpxFOsKmIu0Upko1i0QJS9Y9QxRxavRqaZu0VERc6CKOsczSnnGq25upYgSFfi0UcYNjQUCDwoivgkEnY0V8UNrRKd8V2q6pgtAVi3FqKPVqMleDU0KTiOBEVfFu1KwDU5LsbS0XqlPD5BoO3aU4Dq+k5S1ErT4tRfeYaZSC1F2D4tyBbm625utuQLcmB/006nY8Wpv/JLUitXi1FwjxnvX//EACoQAQABAQUGBwEBAAAAAAAAAAERACEwMUFRQGFxgZHwECBQobHB4dHx/9oACAEBAAE/IdoUCVgrNzoM/FYH4MPD34K1r46Gl/QHhf8At0P7Ar5yGvgrTw9wvxZVm50WPmhEkZPTo0reqTF9cFWXF3Jfelpv4FpqCy4u5D7VYa+uCo0re9IbLWpUd5xqaQ6rrUtqzWdlhtWYxUUh1XWoFd4xottPQ1glqU56sc6cRzhja3Ad44qE562udCJJ6AI9QnPSnHo8/dvYDp5+UIdhLNdtblxy1Oy9U/lKrKyvoIoyMJUJL0D+0Xa8E2qeqTAxawPmDgei4n7FwanqgxMTaJGPM0q7fHL6O7fDJUDDkabN4JJZbilVltfSRhkrgltnudkj4OHwem9N0+HYuCOOW70/hjrnu2DI846aVWW19PLGSsjjjpvnitsNRp0ypX1F0ypGhggsNBvIVTlasW8GkbHaHxiWUCOlKv8AW1/r6/19f6+v9fX+vr/X1/r6/wBfTpnPSZ6ctD0wpGr2nhsdq3g0lQqnI3efT5nTY8fp2uhrXzElvvRJt6yioiIbHnkOTRdAjd5NKqqyuxgqxAc/8v4E4LvJZ/KKY2IURGEoBTtJuGwlp1Xxmuyd033/AH++lmKKY2J0X4zWhkkw89ueXwzbL3Tff9/v8HmKKY2K3HL45PM2EtQq2ejsvdN9/wB/v8XmKKQ2GVG30Wi0k8sHUfrbN3Tff9/v8jSZUAk2GTk/heW1Cz6s9m7pvv8Av9/lbcUAk2CESz6svJhvM04MpLs3dN9/3+/zMt1AJL9QYSSsN4nxh5ttOB2bP3Tff9/v87LdSBJfys22HB7fGy7YHNjs7NdK+b8NYS924Rbs6QJML627YnNj4LBLhSK57s8oIGbTRvgRAC1WtTTkLlFupAkvUBy6CJJhWp0g52bSwTBZi9aIqOCSXe9O6irZAsex/gu0W6kCTC91ugPKyo/SH3tVmljyfr+eNpvAYRkV3x913x913x913x904DMKXW8UnQvqfrpeot1IEl5P6w2oRAXwmnOiwg8MJcmNXIpspkPlxT3aaMyregB4WRwipBrWBwG9RbqESS7tKTcq/LtAKwErRAs836eMK9tz/n++fAAlxMz76+OTamzHNPu+RbqESS637vyVwmD22jPUc348RUZTv15UqsrK+eb4xNGosBWaGbxmbDkWpfK6CJJc8RA9qU8N8bOLMvBWAEcdXXwUCVgKVBlO7Xnc4RuQOT42R42ulGbkQjlfK4aCJJcKOxhtGy+SZ5GvjE2a5P3/AG7xnc0Mnxh7QRDLVzv3cNBkk26tAe+tKCWAgDLwtMgNY25hoZF3Ng4NTNR9ByGZ4FpMR/tZFk477+fDQZJPPQjhvjZoQI5DoeO7ETNyO/q9xIJ8DM+/GIshG9+dgnw0LfKJ7GFcZi9tl3oB35DxfsOE1o+BUpzb2zoAaw7zaaszwBAESEaUYcZ2BPhoW2nk4CF7VuVflvp//OCw40VLuSPNe973tckteubxNWbguPVoBYEJoKAXEIS73WDmrEe6MKxyesn4mF4kr7nmhCEIAWdsY1uQnFdYd8jfu/JfCS0g9ur0rD6sBeWvzk+xVuFnlDW5hxbbo/tDvel43j9rycqFgv8AkXfdYd8VpSR+kfq8YAlWArD3i4ut9YnaSO5sTvS5iILd6z+RfDbDlJ3HO7x7wS+oa1OknK287rrfkA6vtcgAIARfYl53xFcLC87aSSHCkRzy77frf9q1XPsV84XjjZHuoAAMDwsuWBzYXfb9b/tWq59ivnC8t4Wvmw8YeLbTg9l32/W/7VqufYr5wvJ4MnwO3xw3mKMGEhuu363/AGrVc+xXzhdk/KwFYCQ+RYhZ9Wd12/W/7VqufYr5wu4ArLqy8snE/pXXb9b/ALVqufYr5wu4+R+J5W0hqFS30W57Prf941XPsV84N0rZY6Cgggw81mefxzXOAshS+SIX0h7Y+z2uSayg4xY3wPsL/R73WEy24ZPO2kNOKfGaXJwKS19juvTbDKqtxWJvm5N0Zbd/WhpCSIyN4zMBKuBREtpM+9wuWKZru0oAILAuAAd5FIiiQlzHTDIkOGdQ7Q7vxUtNUtNUtNUtNUtNUtNUtNUtNUtNTI6wf+KjbTDAOV27GMltF3uox1owPhqWmqWmqWmqWmqWmqWmqWmqWmqWmpb0YynxWDjhf1zuQgCVwojGcfV1nkeR1uvsD0vP8WHqcruFU4SrVvFrF19kek2VOLQVDsMC8WKC00GnTKhLr7I9HQw2AKFGG21m+yOOGmkhhuvsT0UFYLWskzYaf7sHFHHPfd/ZHonELbLe7F13D5Lv7E9C68v8uycUss95TYw3X2Rt4KwWtcc9ct7s0jDmaVdvjhuvszbbCAgFbgYMv3tEdEGBiVifsHBuvsja8G1iUQ8z4mLtTfGsNSkvQP7SIwkJc/Zm0BQCrkVbbxjM46VhogDbRHsJbrSC9PPy5+yNmfNQYfLWhTqN5aegIJDaVKcsLXKmFV44uPsTY3xc4GkByVY5UAEBB6G2kNSO838VNAdV0pYVZJHm+yL8m9YAlqEE6vpUHAOB0oAILD0iJK3Kl1PTBUmxd6H3pKOWHkg9wu0o4uNRaOIH2qP0AoiafThBISSs3OoR8V7GEvD35S0ojO4A19ApT+BR+BX2ClYxxgr5rT9UlN7gcD2rO5qJe9ABAQbT/9oADAMBAAIAAwAAABDzzzzzzzzzzj4pAJOMIKf7TzzzzzzzzzzzzzzzzzzZtIMMMMMMMMMOKPrzzzzzzzzzzzzzzvOEMMMMMMMMMMMMMNHPfzzzzzzzzzzz+sMMMMMMMMMMMMMMMMMOf/zzzzzzzzzhkMMMMMMMMMMMMMMMMMMMPP8A8888888/ZDDDDDDDDDDDDDDDDDDDDDD3/wDPPPPO8wwwwwwwwwQDTTTQSQwwwwwww59/PPPKwwwwwwwww7PPPPPPCCQwwwwwww0fPPLoQwwwwwwww1vPPPPPPmyQwwwwww0FvPGwwwwwwwwww1vPPPPPPvnwQwwwwwwwfOCgwwwwwwwww1vPPPPPPvvrQQwwwww0vPgwwwwwwwwww1vPPPPPO/vvqSQwwwww9kgwwwwwwwwww09/PPPOZPvvvmSwwwww5wAwwwwwwwwwwwVuvvmvtfvvvvnSwwwwwggwwwwwwwwwwzPFvvqfHPvvvvvuywww0ywwwwwwwwwwwfhPvvvur1fvvvvvmywwwYwwwwwwwwww5qPvvvvrv7vvvvvvvjwwwQgwwwwwwTTT/HPfvvvucPG8sufvvvrQxwAwwww3H/PPPPHfvvvhfPPPPPH/AL774kacMMMMPfzzzzzyv7775TzzzzzxT77775L4MMMMNfzzzzzyv7775XzzzzzxT77775WyIMMMNfzzzzzyv7775XzzzzzxT7776nzyMMMMN/zzzzzyv7775XzzzzzxT7777nzzogMMMPzzzzzyn7775nzzzzzzb777nfzzysMMMOQ4444z3777760444437777Xzzzy+cMMMPD7777777777777777777h/wA8888/jDDDDQ+++++++++++++++++q/wDPPPPPPP5wwww1PvvvvvvvvvvvvvvsnfPPPPPPPPP7wwww9PvvvvvvvvvvvvuP/PPPPPPPPPPLzSAww9PvvvvvvvvvubX/ADzzzzzzzzzzzzw8EoMPT7777777Hm/zzzzzzzzzzzzzzzzzzy6cJzb7nqA3zzzzzzzzzzz/xAApEQABAgIKAwEBAQEAAAAAAAABABEhMSAwQVFhcaGxwdGBkfAQQPHh/9oACAEDAQE/EKoiwOVGYGMNJ6LqQ5PSn5HMnhlKx9PugGXoCJJ+gKdj6bZSchkTy67EOR0ojAwjpPREWBj/ABxxihprAdoGwh9fVg2EUdJYHtQxjXgiYTTLAF1vm7fJQXBXxXAnWILrfF++aJExnWBgXKAOjf6/jAMhf7RYFj9KqBwZm5NSzNp/laFkbQicGRvqBEUT86CfKbz/ADlPhNxRiKIpAEmE0BybPqpLjsAiDBzkO2WD6DtYPoO1g+g7WD6DtHWJIzHToaI4NSByTLpEJjOjCiAlnf43yqmZPYY7UxTMwIcZ/wDaqFEDPO/zvnQnhlSsRVbDYU9IdkRUixgVPDH63aUBzV7DYU9IdvwipfsKB4/CCCZQBtgq9hsKekO36RUCO2hGMUwoslF6lq1ZtNhT0x2oEVECSi9z1dekjk8Vh1hzaOQiCCxokJgcoMRMUALhjiaJFP2EcjlP68k6txWHzgFMxPzIDFyH/k/SwvoLC+goD8BtHKCmVuItQCdwY0iKT+uIOrcpn4DWNY3FgInOwePpIecTBS+Rref21QlgbEdjYiCdBPKPIc+6ZFFn4HSKBhYNqsyZyGaOiOSnQMTAZWn7mjJHhwPHpAhWIirSnQ2imRQBxYtkTmwbVcWLAY3lCDKZwCGBMBROwuDBWKEsRYVF3hNnuXqoI/SY2LZO/AaQplWCDiQv95f7yMwTAhYLfxx2iiIXD61AghxRADkwROoxhEXc/gO2AgXM8fO6/wBYL/WCIsM5EUSPx34HWCb1xI1fmkAEbQFqJJOaRCnhZEybmiDhjMBe1vVIiCMQskQ43GiQm9eQNX4XpJ4PFLRHenqRvRmU/p5pNA4ngcqLJQe5atS0R3p60b0ZjT+nmlDkoPU9XRhBMIA20UdEd6etG9GY0/p5ogs8EY0w/j9hRHNHRHenrRvRmNP6eaLdpRPH7PDClYmgDCc2MP8AlNisRycpD6yjCqIuDx4pTRMBomQsoGxgIqbCaEaIGWd3nfOi3A/kbMvsey+x7L7HsvseyAS41HtAwWAuotCEYolL7j2vsey+x7L7HsvseyaQB97vRjxATzu8b5UQSTiaAxJn3RB/kA1gu0QnM6QiaI+ZBPlFxog/xFngF5R2aJ+aoByZi9PSzFoog/wPEyFpR6TIXVQYVj9NAHQu9UQa4CzJ7R8Vz9KsITiaZYgvt8375qK4KANWVtBin2AL7fF2+SITmdfDGKOksR0gbiP6DUA2YQ01ielGMP8AGVcmKgMDGOs9VKeo8HtT8hmDw6k4+23QJL2BEE/YFOfc+ylZHIHll3o8DtQ2BhDWeqKuOav/xAApEQABAgIKAwADAQAAAAAAAAABABEhMSAwQVFhcZGhscGB0fAQQPHh/9oACAECAQE/EKp9DBQmN5by3RsNc9D2pEOQDt1N/AW4RPPUe0BS1HtSbyF+VMhzAdMhYaZ6L8qExvDeW6fQ4/TYfD6QmUY7HE9D3ono80tJVb8eSWkkIznEdj1omXw+mJivABIwCd450eL+M0VEEb68KIIXJmhnR5u4yQABHBrDVsBvgEQDkX538fpgB5F2V3CFXwO2Bqj8+QtJuCdjCwWAfW/quxzFhH1qHz5i0G41Ba2A3wCMZVgsA+n+uI+YWEfSRa3B2wNIAEjAJgHcY4+eKkBASTYE8iMw+gVj6j6WPqPpY+o+lj6j6TIAZD7ZEw2ImDUsI7zDHxwgACODRjfE7LvPGdU7wm+AC3I4piwGCBxH+IggsamM8RHJd4swyoSNw/g8lGQck9VyuVPcDlCFxNENA1BsGJOpW4f0eD+XSkonod6VfK5U9wOfw1cTRDVDJScR2O9fwdSArc4/izar5XKnuBz+Z8TRDU7c4/vUIYkGKg2fJPZ6wn8/KnuBzQnxNSps0z4JbMnB8T0O6wkMxFwbBeDde+aAA4lRADkwR8GcIk3nDAUZ8Tpsn4Ho8hMO4Bs/dYEByMFJCG5tPlHEboH+y1WN1KxupUa+0WHr+ogJ2YGxEY2IgaWPKTDuEbP0nliGkKx7FEwyWnzLLNFrgIqfSdrh+bPCeItCGyuDFNEDnDoetKeOKLywDWCNzfDmrEyUybhb6GKARsBAJqPAROdg8fSozD49h3qgYuDBWVO4sNPHFAmL8OELC+HNXA+3OAsHvFFLOQxKODOTRGSsRFWuE8DaFC/tFuk9ajHH5Bw/DhNLEdY0w7EvALar+MV/GKHTIqIZzYOz/v4a9koGN5+sRBBY0SEwEU0owjA39fg9fLEMJYeOF/CK/hFAXOGINHHH4aWA6RTjuA7N1SJBvZ3kyGV6AAAMBSEU0bMCb9UTMEJybns90ioDgrOIGF4o44TjuE7N2mR8R2OTS3Y4pxZJ4oyq0AjBAdngJ2ifBPZ6W7HFPanijIrYiycWstmR1IKtzjeLNRR3Y4p7U8UZFZFqYf6hCkD8MhJwPR60o7scU9qeKMishywIDv8AMrcP4fBQkGJNQOCzMbiPfqm/CAwGcz9bRi9AYjvzSMEOkeBmbaA84kspFIoQniNl/jjKiJGNY7Hl18B6L4D0XwHovgPRFhjsHpFx3JtNEQMBwQGG4D0vgPRfAei+A9F8B6J/Ii6XDUYNRMsr/PGdEAEDgpxDcYYeOP2cO9ivSAAAlSDW4O2IRj4jYR9P9fBbyG4IbFAfPUH48jaDeEzHI2EfWfq4yzM2BDoMzaTVGr4HbEIgHMuzu4/Tw67N9IeCw+nWAAgcFO0M6PF2UskVEEL6/Bt8cE0xTdZ5v4zQAYSr2Xw+kZhCO5wPR96p+PN7kavHoSiJDAe1AsH6baHGKjIe8NpbIWOuOw/CkQ5CO2XHA/CIp6BQNLQKluk3KnoDMjp1PaA7PpRmJjHaWyCsMKv/xAAqEAEAAQEGBgEFAQEAAAAAAAABESEAMDFBUWFAcYGRobHBECBQ0fDx4f/aAAgBAQABPxDiEQAxVgLSIUYy/aVpscMEA909WxzlPxh82wpOc8tsC/k8S2JjyXostj3j9WCw7T9WwNea9lsQ/g8C0VCc54bPQ5z8afNoMccUAdl9WXBqwl+0LEgJgjI/juTfknkZ2jl+EPK18WlUTh7SXgLNthInbC/LbCQO1odA4+0h5G0Y24/JK+La9+hY5mX4hAUAKq2nDDdB3we7SgTKvvfEWfYgHJ6vCnsADkdSzgEypjyfM2mDTYF2werIAgjUTP8ABgiAFVcrYD6mAm+bpNmRvDzpn1niyRtrXemXSLKV9TGTbJ1sAQRqJg/gKKJos9SySFtFjqcerj1jG1WYbfpaiiarC83GiU9K4C2lxqpydHnlZ25Eqsq/gTbkSIwjZLKIFebo887E5eVyPFUh9W9R0N7U6Wq4Plm7/ha1DZs9zJ3tSD1b1DU34gF0WFjzNXbvZaUSuV/DrCiVwlgWRYWHI0du3DDW+Iqa9zfKyBFGVWr+JQERGRGpYaGoSppTXfPhEVYqj3T2/jUXSEeyengoNSVTDpddXL8fEoyqd910c+ABxNYMzPm5d7IEUZVar+PSCIjImVgMGEWRnzM+99HHO8k5GdnGqVm/kQGqFk2oxMHuGzleCwVdkFpwBxVMs55vBv4qEuBu/BLjSylKZQHJqK85LBESb3N99999998gQ3haSCIwYjIkD2Niwmo4jqsE/wAx4OWBcXTNOeZYWQpsxu9WGQ/5j3y4OltgCQqvQWISDqs05regkIrDXLTbUztKmzQI+uDXMAS0+I++d0KiuG+fR+rO2RKrVeDHyu/Mr6X8EgBtQrwWHHk9cEzZEiYjYTlENXLq/dwhEACVcrONZgyhj1Ne3CfwdL95v3tj4HE1sceT1wSnigZS+DXvYAQUSJn9+BeSlrmOuHV4X+DpfvN+/wBMXBma2GPI+OCxBwVtcx0w6H3IRACqtmbF49uD1q9eF/g6X7zfv9cXA4mthzyPjgUaBo9cZ6UelkAgiSJ9tdU7wOLt74b+DpfvN+/2QRVYmti7yPA1wRWxQxdqdPtnJEBpOq9HThv4Ol+837/bNCqxNbF3keApoSGkar2dfsgTo3WChaVwb6qy8N/B0v3m/f7pqVWJYm8jfxODfRGS3gbapU7/AFppUrrPnh38HS/eb9/vmJVYljLyN/XipXWPP1SUiKbqvYdOHdOo6KP1v2ncSNBi9Nxql4LCXlYN9BwIpso9J1+hMkAldLMhMfyWnjhxYZ6YJZ7lOS3xdXUIAMVsb1UJOQPWr1udUvEsJeRvUYh6cNfFiaSiR1LQWwEN6Hl4mNL6NQZBKukm062w6UGnUpduw7LhYmDV2K2SXohQtAxXernFRutUvEsJeVg3snspLep5LRawoGoD7BxU3DJB5p8uX1Q8Qa5KJUVq7G/2tGjRpUTPMRaJcUaPTX6zLIgTLL1q9apeJ82EvI4N5MbKIaCD7W2Fuodg+eJVmwvWHJLVU5S5WAAABAGX0T3AhjhBuqFpX8PkbGwUNj7ZeHE8C0TmfuwggNg677fQfLScxLS0qzQGwOZ2ZMr2MtXiWJpI4N3WbiAdx+LVQp3in64gm5EAEq2B5ztLDkCndz+tQdsjDDegkyq7PvlknWqxCdsQhhUzP1oDWKGo6GDrGN9GWV4nzYmkjg3VdqE6ifu0Bn9ZfniJiZSUpl/LnH1E2SU0yKw0FecGdmbkSqyr97MgRxBke5aFwomXg5ZmyfRBISRtN6ghKVeFeyX0SarE03sSQRwbmIT+8vxae6B2Bw74zyjDVdgquhYFcKwhzlusv0ZmBKrAFnFvQjHmVeUGVzGzAT4fv2HZnL6icFW5GBycHnOVnWEGhQwia31ZCsTSxJBHBuJdqjuiznm/Rw407khzetpyHJ+tNJkxrhPsci7Q0AjrX9eQ7k5/UILgYAjp0DuOt/iIWJpYAQRwfvUNssYHf6OGnWBS5GPVwN2wVSHQAIA+hukHpLGROKtAzUs7OJJUwg2CC7jcLEz8HPM3CxiA4EhInT6SFm1jQbjCbljCCUTAYg2RHrfpWFYmlgBBHB+4SWy0d1TuHhsCVSFT8JV3X6pUfEVPhSrumd6hUiUwTKd1FhjRcj612Iwa2PUzyXTgFxteLIAiI4J9sO0T2TaQx+snxwsPOcmKf0LyjP600TLzsOhVdhspxbUqMq9b1ywG6MnZwS1BjHso0Tk/v6N9cBIjiNsa47mnDmNOk58AtTV4sgCCOD9kwj95Pm1EKd4B+r6OCILGMJYHW0lTuvhbf523+dt/nbf523+dtEyCCY2L4Ng+rqaAkU4pq4cjdseJoLOworyLYn1/zlRqXYFyJmONYMt7TSXFMV3NlVQw6DMNEo8j6gxzAoJzHRPIW/zFv8xb/MW/zFv8xY8zuIKO4tn+oYkmJJxKYlLpVXV4sIgiI4J9abYzqh+7VjNR7J83rUSqFNAcjV6GoJFohgvEowHCK5r4wc7U5hQkLwHpMkbmI4AZgcA3VjkuVhhjGCrqsV53mUZpqtRxHctKDZbGmO07JXULl1PK8WEQRkcH6VmYAPdfi0UkqDoI+yXifBgYq4FiZIyQjU6mXrfMAIcSqx5A3I8gIGYydoOl9UgyIFBUDnXkV26lleLCIIyNpCIRHUAPY2islAb0PJeEQcEvG/ESQ6oaerkwQIGQBfAQcEbx0JKskQh6lU92JglEJYmIT+Q08Xf8TTxFD+hpfY/K8EZVrYQL2sTQBAGR9JKBNNlXoet3/E08RQ/oaX2PyvFCRIcpUe16fWslWuk+bt/E08RQ/oaX2PyvKWVQ6Z5+rMDbpJRtI4M9EYbr+Jp4ih/Q0vsfldtCFNmrBaFeqNUKvVr9k7AgNI0Hp63X8TTxFD+hpfY/K7qJzMlJ0Ht6fbXFG8hg7err+Jp4ih/Q0vsfld1l1UKglHavV+0CAIkI52ZsHn1wjpU6XNDP8G/YOsUrk/oaX3jXTuFZtMQ60OtgAABAGR92IeSkrkOmPRuYEagajJaQYx2SS+ZURAass9EHuXNZ+BZQ6nNJ5JfH0qIUVQ9UXWSZ1lcl1x6mn3gQBEhHOyjiRMpfBp2uXKlKoEtU1NZyVmmF5MqIsB+3bO0DCnGIzW7ByALmBaiyXJiaZMbOUIHaDgOCJiXiCJLwBVVcC0u/BuVHQlDWV0i4cKw5SHyad7EyAQBgFwKSum+fUfFmbIhEqNyAM2O5xIOQxtYRIjVQF5T93SCCCCCCCCG2nS9g9rC1pJ6nAUmsTjvdzBygc7llzQtiKL1NOQwd7pBBBBBBBBAgYlQJ3AT3LCNWSHp4mNRNTGVyoJQAKrYE5DnhinQeZulyAgH+Z987qSTrkZ7/AItcn4lPge3K7Fgi7MbTwLgqZbzybqSRriGe/wCJF9PC0zXnkb2AeWTILyrU3gHJzsg1Ssm6kka5Hv8ADlFDjytqHjlOgbGB/wBvgYGMGRlzMu1kQERhHK6kkq5Hv8KABRgAqtgEeKDHy5s+2vAQKMonbNdTO7xB3D3+Eh13RcORa6GWPLgUXWAe4ey7xC3D3+CQdBJ7H6OEGhqgqa9zbOwUBEYRxLrEHcPfHgAUYAKrYa/pLppHXbLPbhQSYwYczR372WFEDhLrEDcPfGvCWHlWxQoU4nL13dteIpB6l6DqbWrUNmj2cna6xB3D3xc+4xFgN3N2K2psun6RobcUTloHI2SziVXk6PPOzNyIRIRuYJCmIe+IWg0ASrZLJ80P0eeVhLhEQH/d+NogmgwvJZHHmgz1Z9VzBI0xD3wykkaCI+XRaJuFSkcmHtv+AQAIQjg2xx9cZN8nSxoW0rvXLrFxBJUyMt+DRAmtC659Js5TtcBts3WeViQgIAIA/BgQBGiOdpgU2hd8HqzwEzpjzfE2xWAOR0fugkaZGW9/iBeROhZ5C1mpmw+Yso9XUUO2DvNgAAEAFD8Rpf6FTk4lphLh8Fr5tFgOHpIeFsuT7g7/AGVB0yMt7sSq1MObgWQQ2PqJeUtBisfhFfNtbbwC83F/HMgJiJI2l1qxl+8LTii4AA7k+bPVJ0I/I/FpyE2Z5LJSTj4OW2OPzfpsDHozsjDqxthh8n7bMdT+K2iYvdHiymTNSTyvxaGWTENOgHzZgRjDySTY0YMAIDif/9kgICAgICAgICAgICAgICAgICAgICAgICAgICAgICAgICAgICAgICAgICAgICAgICAgICAgICAgICAgICAgICAgICAgICAgICAgICAgICAgICAgICAgICAgICAgICAgICAgICAgICAgICAgICAgICAgICAgICAgICAgICAgICAgICAgICAgICAgICAgICAgICAgICAgICAgICAgICAgICAgICAgICAgICAgICAgICAgICAgICAgICAgICAgICAgICAgICAgICAgICAgICAgICAgICAgICAgICAgICAgICAgICAgICAgICAgICAgICAgICAgICAgICAgICAgICAgICAgICAgICAgICAgICAgICAgICAgICAgICAgICAgICAgICAgICAgICAgICAgICAgICAgICAgICAgICAgICAgICAgICAgICAgICAgICAgICAgICAgICAgICAgICAgICAgICAgICAgICAgICAgICAgICAgICAgICAgICAgICAgICAgICAgICAgICAgICAgICAgICAgICAgICAgICAgICAgICAgICAgICAgICAgICAgICAgICAgICAgICAgICAgICAgICAgICAgICAgICAgICAgICAgICAgICAgICAgICAgICAgICAgICAgICAgICAgICAgICAgICAgICAgICAgICAgICAgICAgICAgICAgICAgICAgICAgICAgICAgICAgICAgICAgICAgICAgICAgICAgICAgICAgICAgICAgICAgICAgICAgICAgICAgICAgICAgICAgICAgICAgICAgICAgICAgICAgICAgICAgICAgICAgICAgICAgICAgICAgICAgICAgICAgICAgICAgICAgICAgICAgICAgICAgICAgICAgICAgICAgICAgICAgICAgICAgICAgICAgICAgICAgICAgICAgICAgICAgICAgICAgICAgICAgICAgICAgICAgICAgICAgICAgICAgICAgICAgICAgICAgICAgICAgICAgICAgICAgICAgICAgICAgICAgICAgICAgICAgICAgICAgICAgICAgICAgICAgICAgICAgICAgICAgICAgICAgICAgICAgICAgICAgICAgICAgICAgICAgICAgICAgICAgICAgICAgICAgICAgICAgICAgICAgICAgICAgICAgICAgICAgICAgICAgICAgICAgICAgICAgICAgICAgICAgICAgICAgICAgICAgICAgICAgICAgICAgICAgICAgICAgICAgICAgIA==;" vertex="1" parent="1">
          <mxGeometry x="590" y="120" width="50" height="50" as="geometry" />
        </mxCell>
        <mxCell id="ZMSztsOyMsakCCSBzYCo-44" value="&lt;u&gt;&lt;b&gt;Contenido del MD&lt;/b&gt;&lt;/u&gt;&lt;br&gt;-Disc: Premisas (Dependencias TÃ©cnicas --&amp;gt; UX)&lt;br style=&quot;font-size: 13px&quot;&gt;-Disc, Delivery:&amp;nbsp;Componentes&lt;br style=&quot;font-size: 13px&quot;&gt;-Delivery: Secuencia: Reflejar Dependencias TÃ©cnicas no el UX.&lt;br&gt;-Disc, Delivery: Impactos.&lt;br style=&quot;font-size: 13px&quot;&gt;-Disc:&amp;nbsp;ROAM" style="text;html=1;strokeColor=none;fillColor=none;align=left;verticalAlign=middle;whiteSpace=wrap;rounded=0;fontSize=13;" vertex="1" parent="1">
          <mxGeometry x="860" y="345" width="520" height="80" as="geometry" />
        </mxCell>
        <mxCell id="ZMSztsOyMsakCCSBzYCo-45" style="edgeStyle=orthogonalEdgeStyle;rounded=0;orthogonalLoop=1;jettySize=auto;html=1;exitX=0.45;exitY=1;exitDx=0;exitDy=0;entryX=0;entryY=0.45;entryDx=0;entryDy=0;" edge="1" parent="1" source="ZMSztsOyMsakCCSBzYCo-48" target="ZMSztsOyMsakCCSBzYCo-50">
          <mxGeometry relative="1" as="geometry" />
        </mxCell>
        <mxCell id="ZMSztsOyMsakCCSBzYCo-46" style="edgeStyle=orthogonalEdgeStyle;rounded=0;orthogonalLoop=1;jettySize=auto;html=1;exitX=0.35;exitY=1;exitDx=0;exitDy=0;entryX=0;entryY=0.575;entryDx=0;entryDy=0;" edge="1" parent="1" source="ZMSztsOyMsakCCSBzYCo-48" target="ZMSztsOyMsakCCSBzYCo-51">
          <mxGeometry relative="1" as="geometry" />
        </mxCell>
        <mxCell id="ZMSztsOyMsakCCSBzYCo-47" style="edgeStyle=orthogonalEdgeStyle;rounded=0;orthogonalLoop=1;jettySize=auto;html=1;exitX=0.575;exitY=1;exitDx=0;exitDy=0;entryX=0;entryY=0.525;entryDx=0;entryDy=0;" edge="1" parent="1" source="ZMSztsOyMsakCCSBzYCo-48" target="ZMSztsOyMsakCCSBzYCo-54">
          <mxGeometry relative="1" as="geometry" />
        </mxCell>
        <mxCell id="ZMSztsOyMsakCCSBzYCo-48" value="Customer" style="rounded=1;whiteSpace=wrap;html=1;points=[[0,0.025],[0,0.05],[0,0.075],[0,0.1],[0,0.125],[0,0.15],[0,0.175],[0,0.2],[0,0.225],[0,0.25],[0,0.275],[0,0.3],[0,0.325],[0,0.35],[0,0.375],[0,0.4],[0,0.425],[0,0.45],[0,0.475],[0,0.5],[0,0.525],[0,0.55],[0,0.575],[0,0.6],[0,0.625],[0,0.65],[0,0.675],[0,0.7],[0,0.725],[0,0.75],[0,0.775],[0,0.8],[0,0.825],[0,0.85],[0,0.875],[0,0.9],[0,0.925],[0,0.95],[0,0.975],[0.025,0],[0.05,0],[0.075,0],[0.1,0],[0.125,0],[0.15,0],[0.175,0],[0.2,0],[0.225,0],[0.25,0],[0.275,0],[0.3,0],[0.325,0],[0.35,0],[0.375,0],[0.4,0],[0.425,0],[0.45,0],[0.475,0],[0.5,0],[0.525,0],[0.55,0],[0.575,0],[0.6,0],[0.625,0],[0.65,0],[0.675,0],[0.7,0],[0.725,0],[0.75,0],[0.775,0],[0.8,0],[0.825,0],[0.85,0],[0.875,0],[0.9,0],[0.925,0],[0.95,0],[0.975,0],[1,0.025],[1,0.05],[1,0.075],[1,0.1],[1,0.125],[1,0.15],[1,0.175],[1,0.2],[1,0.225],[1,0.25],[1,0.275],[1,0.3],[1,0.325],[1,0.35],[1,0.375],[1,0.4],[1,0.425],[1,0.45],[1,0.475],[1,0.5],[1,0.525],[1,0.55],[1,0.575],[1,0.6],[1,0.625],[1,0.65],[1,0.675],[1,0.7],[1,0.725],[1,0.75],[1,0.775],[1,0.8],[1,0.825],[1,0.85],[1,0.875],[1,0.9],[1,0.925],[1,0.95],[1,0.975],[0.025,1],[0.05,1],[0.075,1],[0.1,1],[0.125,1],[0.15,1],[0.175,1],[0.2,1],[0.225,1],[0.25,1],[0.275,1],[0.3,1],[0.325,1],[0.35,1],[0.375,1],[0.4,1],[0.425,1],[0.45,1],[0.475,1],[0.5,1],[0.525,1],[0.55,1],[0.575,1],[0.6,1],[0.625,1],[0.65,1],[0.675,1],[0.7,1],[0.725,1],[0.75,1],[0.775,1],[0.8,1],[0.825,1],[0.85,1],[0.875,1],[0.9,1],[0.925,1],[0.95,1],[0.975,1]];verticalAlign=middle;fontStyle=1;strokeColor=#666666;fillColor=#f5f5f5;fontColor=#333333;fontSize=21;" vertex="1" parent="1">
          <mxGeometry x="100" y="1195" width="200" height="40" as="geometry" />
        </mxCell>
        <mxCell id="ZMSztsOyMsakCCSBzYCo-49" style="edgeStyle=orthogonalEdgeStyle;rounded=0;orthogonalLoop=1;jettySize=auto;html=1;entryX=0;entryY=0.55;entryDx=0;entryDy=0;" edge="1" parent="1" target="ZMSztsOyMsakCCSBzYCo-75">
          <mxGeometry relative="1" as="geometry">
            <mxPoint x="815" y="1592" as="sourcePoint" />
          </mxGeometry>
        </mxCell>
        <mxCell id="ZMSztsOyMsakCCSBzYCo-50" value="Customer-Order-Management" style="rounded=1;whiteSpace=wrap;html=1;points=[[0,0.025],[0,0.05],[0,0.075],[0,0.1],[0,0.125],[0,0.15],[0,0.175],[0,0.2],[0,0.225],[0,0.25],[0,0.275],[0,0.3],[0,0.325],[0,0.35],[0,0.375],[0,0.4],[0,0.425],[0,0.45],[0,0.475],[0,0.5],[0,0.525],[0,0.55],[0,0.575],[0,0.6],[0,0.625],[0,0.65],[0,0.675],[0,0.7],[0,0.725],[0,0.75],[0,0.775],[0,0.8],[0,0.825],[0,0.85],[0,0.875],[0,0.9],[0,0.925],[0,0.95],[0,0.975],[0.025,0],[0.05,0],[0.075,0],[0.1,0],[0.125,0],[0.15,0],[0.175,0],[0.2,0],[0.225,0],[0.25,0],[0.275,0],[0.3,0],[0.325,0],[0.35,0],[0.375,0],[0.4,0],[0.425,0],[0.45,0],[0.475,0],[0.5,0],[0.525,0],[0.55,0],[0.575,0],[0.6,0],[0.625,0],[0.65,0],[0.675,0],[0.7,0],[0.725,0],[0.75,0],[0.775,0],[0.8,0],[0.825,0],[0.85,0],[0.875,0],[0.9,0],[0.925,0],[0.95,0],[0.975,0],[1,0.025],[1,0.05],[1,0.075],[1,0.1],[1,0.125],[1,0.15],[1,0.175],[1,0.2],[1,0.225],[1,0.25],[1,0.275],[1,0.3],[1,0.325],[1,0.35],[1,0.375],[1,0.4],[1,0.425],[1,0.45],[1,0.475],[1,0.5],[1,0.525],[1,0.55],[1,0.575],[1,0.6],[1,0.625],[1,0.65],[1,0.675],[1,0.7],[1,0.725],[1,0.75],[1,0.775],[1,0.8],[1,0.825],[1,0.85],[1,0.875],[1,0.9],[1,0.925],[1,0.95],[1,0.975],[0.025,1],[0.05,1],[0.075,1],[0.1,1],[0.125,1],[0.15,1],[0.175,1],[0.2,1],[0.225,1],[0.25,1],[0.275,1],[0.3,1],[0.325,1],[0.35,1],[0.375,1],[0.4,1],[0.425,1],[0.45,1],[0.475,1],[0.5,1],[0.525,1],[0.55,1],[0.575,1],[0.6,1],[0.625,1],[0.65,1],[0.675,1],[0.7,1],[0.725,1],[0.75,1],[0.775,1],[0.8,1],[0.825,1],[0.85,1],[0.875,1],[0.9,1],[0.925,1],[0.95,1],[0.975,1]];verticalAlign=middle;fontStyle=1;strokeColor=#666666;fillColor=#f5f5f5;fontColor=#333333;fontSize=21;" vertex="1" parent="1">
          <mxGeometry x="615" y="1540" width="200" height="80" as="geometry" />
        </mxCell>
        <mxCell id="ZMSztsOyMsakCCSBzYCo-51" value="Customer-Self-Management" style="rounded=1;whiteSpace=wrap;html=1;points=[[0,0.025],[0,0.05],[0,0.075],[0,0.1],[0,0.125],[0,0.15],[0,0.175],[0,0.2],[0,0.225],[0,0.25],[0,0.275],[0,0.3],[0,0.325],[0,0.35],[0,0.375],[0,0.4],[0,0.425],[0,0.45],[0,0.475],[0,0.5],[0,0.525],[0,0.55],[0,0.575],[0,0.6],[0,0.625],[0,0.65],[0,0.675],[0,0.7],[0,0.725],[0,0.75],[0,0.775],[0,0.8],[0,0.825],[0,0.85],[0,0.875],[0,0.9],[0,0.925],[0,0.95],[0,0.975],[0.025,0],[0.05,0],[0.075,0],[0.1,0],[0.125,0],[0.15,0],[0.175,0],[0.2,0],[0.225,0],[0.25,0],[0.275,0],[0.3,0],[0.325,0],[0.35,0],[0.375,0],[0.4,0],[0.425,0],[0.45,0],[0.475,0],[0.5,0],[0.525,0],[0.55,0],[0.575,0],[0.6,0],[0.625,0],[0.65,0],[0.675,0],[0.7,0],[0.725,0],[0.75,0],[0.775,0],[0.8,0],[0.825,0],[0.85,0],[0.875,0],[0.9,0],[0.925,0],[0.95,0],[0.975,0],[1,0.025],[1,0.05],[1,0.075],[1,0.1],[1,0.125],[1,0.15],[1,0.175],[1,0.2],[1,0.225],[1,0.25],[1,0.275],[1,0.3],[1,0.325],[1,0.35],[1,0.375],[1,0.4],[1,0.425],[1,0.45],[1,0.475],[1,0.5],[1,0.525],[1,0.55],[1,0.575],[1,0.6],[1,0.625],[1,0.65],[1,0.675],[1,0.7],[1,0.725],[1,0.75],[1,0.775],[1,0.8],[1,0.825],[1,0.85],[1,0.875],[1,0.9],[1,0.925],[1,0.95],[1,0.975],[0.025,1],[0.05,1],[0.075,1],[0.1,1],[0.125,1],[0.15,1],[0.175,1],[0.2,1],[0.225,1],[0.25,1],[0.275,1],[0.3,1],[0.325,1],[0.35,1],[0.375,1],[0.4,1],[0.425,1],[0.45,1],[0.475,1],[0.5,1],[0.525,1],[0.55,1],[0.575,1],[0.6,1],[0.625,1],[0.65,1],[0.675,1],[0.7,1],[0.725,1],[0.75,1],[0.775,1],[0.8,1],[0.825,1],[0.85,1],[0.875,1],[0.9,1],[0.925,1],[0.95,1],[0.975,1]];verticalAlign=middle;fontStyle=1;strokeColor=#666666;fillColor=#f5f5f5;fontColor=#333333;fontSize=21;" vertex="1" parent="1">
          <mxGeometry x="615" y="1900" width="190" height="80" as="geometry" />
        </mxCell>
        <mxCell id="ZMSztsOyMsakCCSBzYCo-52" style="edgeStyle=orthogonalEdgeStyle;rounded=0;orthogonalLoop=1;jettySize=auto;html=1;exitX=0.475;exitY=1;exitDx=0;exitDy=0;" edge="1" parent="1" source="ZMSztsOyMsakCCSBzYCo-53" target="ZMSztsOyMsakCCSBzYCo-59">
          <mxGeometry relative="1" as="geometry" />
        </mxCell>
        <mxCell id="ZMSztsOyMsakCCSBzYCo-53" value="Product" style="rounded=1;whiteSpace=wrap;html=1;points=[[0,0.025],[0,0.05],[0,0.075],[0,0.1],[0,0.125],[0,0.15],[0,0.175],[0,0.2],[0,0.225],[0,0.25],[0,0.275],[0,0.3],[0,0.325],[0,0.35],[0,0.375],[0,0.4],[0,0.425],[0,0.45],[0,0.475],[0,0.5],[0,0.525],[0,0.55],[0,0.575],[0,0.6],[0,0.625],[0,0.65],[0,0.675],[0,0.7],[0,0.725],[0,0.75],[0,0.775],[0,0.8],[0,0.825],[0,0.85],[0,0.875],[0,0.9],[0,0.925],[0,0.95],[0,0.975],[0.025,0],[0.05,0],[0.075,0],[0.1,0],[0.125,0],[0.15,0],[0.175,0],[0.2,0],[0.225,0],[0.25,0],[0.275,0],[0.3,0],[0.325,0],[0.35,0],[0.375,0],[0.4,0],[0.425,0],[0.45,0],[0.475,0],[0.5,0],[0.525,0],[0.55,0],[0.575,0],[0.6,0],[0.625,0],[0.65,0],[0.675,0],[0.7,0],[0.725,0],[0.75,0],[0.775,0],[0.8,0],[0.825,0],[0.85,0],[0.875,0],[0.9,0],[0.925,0],[0.95,0],[0.975,0],[1,0.025],[1,0.05],[1,0.075],[1,0.1],[1,0.125],[1,0.15],[1,0.175],[1,0.2],[1,0.225],[1,0.25],[1,0.275],[1,0.3],[1,0.325],[1,0.35],[1,0.375],[1,0.4],[1,0.425],[1,0.45],[1,0.475],[1,0.5],[1,0.525],[1,0.55],[1,0.575],[1,0.6],[1,0.625],[1,0.65],[1,0.675],[1,0.7],[1,0.725],[1,0.75],[1,0.775],[1,0.8],[1,0.825],[1,0.85],[1,0.875],[1,0.9],[1,0.925],[1,0.95],[1,0.975],[0.025,1],[0.05,1],[0.075,1],[0.1,1],[0.125,1],[0.15,1],[0.175,1],[0.2,1],[0.225,1],[0.25,1],[0.275,1],[0.3,1],[0.325,1],[0.35,1],[0.375,1],[0.4,1],[0.425,1],[0.45,1],[0.475,1],[0.5,1],[0.525,1],[0.55,1],[0.575,1],[0.6,1],[0.625,1],[0.65,1],[0.675,1],[0.7,1],[0.725,1],[0.75,1],[0.775,1],[0.8,1],[0.825,1],[0.85,1],[0.875,1],[0.9,1],[0.925,1],[0.95,1],[0.975,1]];verticalAlign=middle;fontStyle=1;strokeColor=#666666;fillColor=#f5f5f5;fontColor=#333333;fontSize=21;" vertex="1" parent="1">
          <mxGeometry x="100" y="1040" width="200" height="40" as="geometry" />
        </mxCell>
        <mxCell id="ZMSztsOyMsakCCSBzYCo-54" value="Customer-Information-Management" style="rounded=1;whiteSpace=wrap;html=1;points=[[0,0.025],[0,0.05],[0,0.075],[0,0.1],[0,0.125],[0,0.15],[0,0.175],[0,0.2],[0,0.225],[0,0.25],[0,0.275],[0,0.3],[0,0.325],[0,0.35],[0,0.375],[0,0.4],[0,0.425],[0,0.45],[0,0.475],[0,0.5],[0,0.525],[0,0.55],[0,0.575],[0,0.6],[0,0.625],[0,0.65],[0,0.675],[0,0.7],[0,0.725],[0,0.75],[0,0.775],[0,0.8],[0,0.825],[0,0.85],[0,0.875],[0,0.9],[0,0.925],[0,0.95],[0,0.975],[0.025,0],[0.05,0],[0.075,0],[0.1,0],[0.125,0],[0.15,0],[0.175,0],[0.2,0],[0.225,0],[0.25,0],[0.275,0],[0.3,0],[0.325,0],[0.35,0],[0.375,0],[0.4,0],[0.425,0],[0.45,0],[0.475,0],[0.5,0],[0.525,0],[0.55,0],[0.575,0],[0.6,0],[0.625,0],[0.65,0],[0.675,0],[0.7,0],[0.725,0],[0.75,0],[0.775,0],[0.8,0],[0.825,0],[0.85,0],[0.875,0],[0.9,0],[0.925,0],[0.95,0],[0.975,0],[1,0.025],[1,0.05],[1,0.075],[1,0.1],[1,0.125],[1,0.15],[1,0.175],[1,0.2],[1,0.225],[1,0.25],[1,0.275],[1,0.3],[1,0.325],[1,0.35],[1,0.375],[1,0.4],[1,0.425],[1,0.45],[1,0.475],[1,0.5],[1,0.525],[1,0.55],[1,0.575],[1,0.6],[1,0.625],[1,0.65],[1,0.675],[1,0.7],[1,0.725],[1,0.75],[1,0.775],[1,0.8],[1,0.825],[1,0.85],[1,0.875],[1,0.9],[1,0.925],[1,0.95],[1,0.975],[0.025,1],[0.05,1],[0.075,1],[0.1,1],[0.125,1],[0.15,1],[0.175,1],[0.2,1],[0.225,1],[0.25,1],[0.275,1],[0.3,1],[0.325,1],[0.35,1],[0.375,1],[0.4,1],[0.425,1],[0.45,1],[0.475,1],[0.5,1],[0.525,1],[0.55,1],[0.575,1],[0.6,1],[0.625,1],[0.65,1],[0.675,1],[0.7,1],[0.725,1],[0.75,1],[0.775,1],[0.8,1],[0.825,1],[0.85,1],[0.875,1],[0.9,1],[0.925,1],[0.95,1],[0.975,1]];verticalAlign=middle;fontStyle=1;strokeColor=#666666;fillColor=#f5f5f5;fontColor=#333333;fontSize=21;" vertex="1" parent="1">
          <mxGeometry x="615" y="1310" width="200" height="80" as="geometry" />
        </mxCell>
        <mxCell id="ZMSztsOyMsakCCSBzYCo-55" style="edgeStyle=orthogonalEdgeStyle;rounded=0;orthogonalLoop=1;jettySize=auto;html=1;exitX=0.425;exitY=1;exitDx=0;exitDy=0;entryX=0;entryY=0.5;entryDx=0;entryDy=0;entryPerimeter=0;" edge="1" parent="1" source="ZMSztsOyMsakCCSBzYCo-59" target="ZMSztsOyMsakCCSBzYCo-76">
          <mxGeometry relative="1" as="geometry" />
        </mxCell>
        <mxCell id="ZMSztsOyMsakCCSBzYCo-56" style="edgeStyle=orthogonalEdgeStyle;rounded=0;orthogonalLoop=1;jettySize=auto;html=1;exitX=0.3;exitY=1;exitDx=0;exitDy=0;entryX=0;entryY=0.5;entryDx=0;entryDy=0;entryPerimeter=0;" edge="1" parent="1" source="ZMSztsOyMsakCCSBzYCo-59" target="ZMSztsOyMsakCCSBzYCo-78">
          <mxGeometry relative="1" as="geometry" />
        </mxCell>
        <mxCell id="ZMSztsOyMsakCCSBzYCo-57" style="edgeStyle=orthogonalEdgeStyle;rounded=0;orthogonalLoop=1;jettySize=auto;html=1;exitX=1;exitY=0.125;exitDx=0;exitDy=0;" edge="1" parent="1" source="ZMSztsOyMsakCCSBzYCo-59" target="ZMSztsOyMsakCCSBzYCo-81">
          <mxGeometry relative="1" as="geometry" />
        </mxCell>
        <mxCell id="ZMSztsOyMsakCCSBzYCo-58" style="edgeStyle=orthogonalEdgeStyle;rounded=0;orthogonalLoop=1;jettySize=auto;html=1;exitX=0.95;exitY=0;exitDx=0;exitDy=0;entryX=0;entryY=0.425;entryDx=0;entryDy=0;" edge="1" parent="1" source="ZMSztsOyMsakCCSBzYCo-59" target="ZMSztsOyMsakCCSBzYCo-80">
          <mxGeometry relative="1" as="geometry" />
        </mxCell>
        <mxCell id="ZMSztsOyMsakCCSBzYCo-59" value="PRODUCT CATALOG MANAGEMENT" style="rounded=1;whiteSpace=wrap;html=1;points=[[0,0.025],[0,0.05],[0,0.075],[0,0.1],[0,0.125],[0,0.15],[0,0.175],[0,0.2],[0,0.225],[0,0.25],[0,0.275],[0,0.3],[0,0.325],[0,0.35],[0,0.375],[0,0.4],[0,0.425],[0,0.45],[0,0.475],[0,0.5],[0,0.525],[0,0.55],[0,0.575],[0,0.6],[0,0.625],[0,0.65],[0,0.675],[0,0.7],[0,0.725],[0,0.75],[0,0.775],[0,0.8],[0,0.825],[0,0.85],[0,0.875],[0,0.9],[0,0.925],[0,0.95],[0,0.975],[0.025,0],[0.05,0],[0.075,0],[0.1,0],[0.125,0],[0.15,0],[0.175,0],[0.2,0],[0.225,0],[0.25,0],[0.275,0],[0.3,0],[0.325,0],[0.35,0],[0.375,0],[0.4,0],[0.425,0],[0.45,0],[0.475,0],[0.5,0],[0.525,0],[0.55,0],[0.575,0],[0.6,0],[0.625,0],[0.65,0],[0.675,0],[0.7,0],[0.725,0],[0.75,0],[0.775,0],[0.8,0],[0.825,0],[0.85,0],[0.875,0],[0.9,0],[0.925,0],[0.95,0],[0.975,0],[1,0.025],[1,0.05],[1,0.075],[1,0.1],[1,0.125],[1,0.15],[1,0.175],[1,0.2],[1,0.225],[1,0.25],[1,0.275],[1,0.3],[1,0.325],[1,0.35],[1,0.375],[1,0.4],[1,0.425],[1,0.45],[1,0.475],[1,0.5],[1,0.525],[1,0.55],[1,0.575],[1,0.6],[1,0.625],[1,0.65],[1,0.675],[1,0.7],[1,0.725],[1,0.75],[1,0.775],[1,0.8],[1,0.825],[1,0.85],[1,0.875],[1,0.9],[1,0.925],[1,0.95],[1,0.975],[0.025,1],[0.05,1],[0.075,1],[0.1,1],[0.125,1],[0.15,1],[0.175,1],[0.2,1],[0.225,1],[0.25,1],[0.275,1],[0.3,1],[0.325,1],[0.35,1],[0.375,1],[0.4,1],[0.425,1],[0.45,1],[0.475,1],[0.5,1],[0.525,1],[0.55,1],[0.575,1],[0.6,1],[0.625,1],[0.65,1],[0.675,1],[0.7,1],[0.725,1],[0.75,1],[0.775,1],[0.8,1],[0.825,1],[0.85,1],[0.875,1],[0.9,1],[0.925,1],[0.95,1],[0.975,1]];verticalAlign=middle;fontStyle=1;strokeColor=#666666;fillColor=#f5f5f5;fontColor=#333333;fontSize=21;" vertex="1" parent="1">
          <mxGeometry x="615" y="1080" width="200" height="80" as="geometry" />
        </mxCell>
        <mxCell id="ZMSztsOyMsakCCSBzYCo-60" style="edgeStyle=orthogonalEdgeStyle;rounded=0;orthogonalLoop=1;jettySize=auto;html=1;exitX=0.8;exitY=1;exitDx=0;exitDy=0;entryX=0;entryY=0.475;entryDx=0;entryDy=0;fontSize=17;" edge="1" parent="1" source="ZMSztsOyMsakCCSBzYCo-50" target="ZMSztsOyMsakCCSBzYCo-63">
          <mxGeometry relative="1" as="geometry">
            <mxPoint x="822.4999999999995" y="1340" as="sourcePoint" />
          </mxGeometry>
        </mxCell>
        <mxCell id="ZMSztsOyMsakCCSBzYCo-61" style="edgeStyle=orthogonalEdgeStyle;rounded=0;orthogonalLoop=1;jettySize=auto;html=1;exitX=0.675;exitY=1;exitDx=0;exitDy=0;entryX=0;entryY=0.5;entryDx=0;entryDy=0;fontSize=17;" edge="1" parent="1" source="ZMSztsOyMsakCCSBzYCo-50" target="ZMSztsOyMsakCCSBzYCo-65">
          <mxGeometry relative="1" as="geometry">
            <mxPoint x="817.4999999999995" y="1340" as="sourcePoint" />
          </mxGeometry>
        </mxCell>
        <mxCell id="ZMSztsOyMsakCCSBzYCo-62" style="edgeStyle=orthogonalEdgeStyle;rounded=0;orthogonalLoop=1;jettySize=auto;html=1;exitX=1;exitY=0.575;exitDx=0;exitDy=0;entryX=1;entryY=0.425;entryDx=0;entryDy=0;" edge="1" parent="1" source="ZMSztsOyMsakCCSBzYCo-63" target="ZMSztsOyMsakCCSBzYCo-67">
          <mxGeometry relative="1" as="geometry" />
        </mxCell>
        <mxCell id="ZMSztsOyMsakCCSBzYCo-63" value="FEAT" style="rounded=1;whiteSpace=wrap;html=1;points=[[0,0.025],[0,0.05],[0,0.075],[0,0.1],[0,0.125],[0,0.15],[0,0.175],[0,0.2],[0,0.225],[0,0.25],[0,0.275],[0,0.3],[0,0.325],[0,0.35],[0,0.375],[0,0.4],[0,0.425],[0,0.45],[0,0.475],[0,0.5],[0,0.525],[0,0.55],[0,0.575],[0,0.6],[0,0.625],[0,0.65],[0,0.675],[0,0.7],[0,0.725],[0,0.75],[0,0.775],[0,0.8],[0,0.825],[0,0.85],[0,0.875],[0,0.9],[0,0.925],[0,0.95],[0,0.975],[0.025,0],[0.05,0],[0.075,0],[0.1,0],[0.125,0],[0.15,0],[0.175,0],[0.2,0],[0.225,0],[0.25,0],[0.275,0],[0.3,0],[0.325,0],[0.35,0],[0.375,0],[0.4,0],[0.425,0],[0.45,0],[0.475,0],[0.5,0],[0.525,0],[0.55,0],[0.575,0],[0.6,0],[0.625,0],[0.65,0],[0.675,0],[0.7,0],[0.725,0],[0.75,0],[0.775,0],[0.8,0],[0.825,0],[0.85,0],[0.875,0],[0.9,0],[0.925,0],[0.95,0],[0.975,0],[1,0.025],[1,0.05],[1,0.075],[1,0.1],[1,0.125],[1,0.15],[1,0.175],[1,0.2],[1,0.225],[1,0.25],[1,0.275],[1,0.3],[1,0.325],[1,0.35],[1,0.375],[1,0.4],[1,0.425],[1,0.45],[1,0.475],[1,0.5],[1,0.525],[1,0.55],[1,0.575],[1,0.6],[1,0.625],[1,0.65],[1,0.675],[1,0.7],[1,0.725],[1,0.75],[1,0.775],[1,0.8],[1,0.825],[1,0.85],[1,0.875],[1,0.9],[1,0.925],[1,0.95],[1,0.975],[0.025,1],[0.05,1],[0.075,1],[0.1,1],[0.125,1],[0.15,1],[0.175,1],[0.2,1],[0.225,1],[0.25,1],[0.275,1],[0.3,1],[0.325,1],[0.35,1],[0.375,1],[0.4,1],[0.425,1],[0.45,1],[0.475,1],[0.5,1],[0.525,1],[0.55,1],[0.575,1],[0.6,1],[0.625,1],[0.65,1],[0.675,1],[0.7,1],[0.725,1],[0.75,1],[0.775,1],[0.8,1],[0.825,1],[0.85,1],[0.875,1],[0.9,1],[0.925,1],[0.95,1],[0.975,1]];verticalAlign=middle;fontStyle=1;strokeColor=#82b366;fillColor=#d5e8d4;fontSize=21;" vertex="1" parent="1">
          <mxGeometry x="965" y="1630" width="120" height="40" as="geometry" />
        </mxCell>
        <mxCell id="ZMSztsOyMsakCCSBzYCo-64" style="edgeStyle=orthogonalEdgeStyle;rounded=0;orthogonalLoop=1;jettySize=auto;html=1;exitX=1;exitY=0.175;exitDx=0;exitDy=0;entryX=1;entryY=0.5;entryDx=0;entryDy=0;" edge="1" parent="1" source="ZMSztsOyMsakCCSBzYCo-65" target="ZMSztsOyMsakCCSBzYCo-79">
          <mxGeometry relative="1" as="geometry">
            <Array as="points">
              <mxPoint x="1170" y="1687" />
              <mxPoint x="1170" y="1315" />
            </Array>
          </mxGeometry>
        </mxCell>
        <mxCell id="ZMSztsOyMsakCCSBzYCo-65" value="FEAT-100" style="rounded=1;whiteSpace=wrap;html=1;points=[[0,0.025],[0,0.05],[0,0.075],[0,0.1],[0,0.125],[0,0.15],[0,0.175],[0,0.2],[0,0.225],[0,0.25],[0,0.275],[0,0.3],[0,0.325],[0,0.35],[0,0.375],[0,0.4],[0,0.425],[0,0.45],[0,0.475],[0,0.5],[0,0.525],[0,0.55],[0,0.575],[0,0.6],[0,0.625],[0,0.65],[0,0.675],[0,0.7],[0,0.725],[0,0.75],[0,0.775],[0,0.8],[0,0.825],[0,0.85],[0,0.875],[0,0.9],[0,0.925],[0,0.95],[0,0.975],[0.025,0],[0.05,0],[0.075,0],[0.1,0],[0.125,0],[0.15,0],[0.175,0],[0.2,0],[0.225,0],[0.25,0],[0.275,0],[0.3,0],[0.325,0],[0.35,0],[0.375,0],[0.4,0],[0.425,0],[0.45,0],[0.475,0],[0.5,0],[0.525,0],[0.55,0],[0.575,0],[0.6,0],[0.625,0],[0.65,0],[0.675,0],[0.7,0],[0.725,0],[0.75,0],[0.775,0],[0.8,0],[0.825,0],[0.85,0],[0.875,0],[0.9,0],[0.925,0],[0.95,0],[0.975,0],[1,0.025],[1,0.05],[1,0.075],[1,0.1],[1,0.125],[1,0.15],[1,0.175],[1,0.2],[1,0.225],[1,0.25],[1,0.275],[1,0.3],[1,0.325],[1,0.35],[1,0.375],[1,0.4],[1,0.425],[1,0.45],[1,0.475],[1,0.5],[1,0.525],[1,0.55],[1,0.575],[1,0.6],[1,0.625],[1,0.65],[1,0.675],[1,0.7],[1,0.725],[1,0.75],[1,0.775],[1,0.8],[1,0.825],[1,0.85],[1,0.875],[1,0.9],[1,0.925],[1,0.95],[1,0.975],[0.025,1],[0.05,1],[0.075,1],[0.1,1],[0.125,1],[0.15,1],[0.175,1],[0.2,1],[0.225,1],[0.25,1],[0.275,1],[0.3,1],[0.325,1],[0.35,1],[0.375,1],[0.4,1],[0.425,1],[0.45,1],[0.475,1],[0.5,1],[0.525,1],[0.55,1],[0.575,1],[0.6,1],[0.625,1],[0.65,1],[0.675,1],[0.7,1],[0.725,1],[0.75,1],[0.775,1],[0.8,1],[0.825,1],[0.85,1],[0.875,1],[0.9,1],[0.925,1],[0.95,1],[0.975,1]];verticalAlign=middle;fontStyle=1;strokeColor=#82b366;fillColor=#d5e8d4;fontSize=21;" vertex="1" parent="1">
          <mxGeometry x="965" y="1680" width="120" height="40" as="geometry" />
        </mxCell>
        <mxCell id="ZMSztsOyMsakCCSBzYCo-66" style="edgeStyle=orthogonalEdgeStyle;rounded=0;orthogonalLoop=1;jettySize=auto;html=1;exitX=0;exitY=0.475;exitDx=0;exitDy=0;" edge="1" parent="1" source="ZMSztsOyMsakCCSBzYCo-67" target="ZMSztsOyMsakCCSBzYCo-54">
          <mxGeometry relative="1" as="geometry" />
        </mxCell>
        <mxCell id="ZMSztsOyMsakCCSBzYCo-67" value="FEAT" style="rounded=1;whiteSpace=wrap;html=1;points=[[0,0.025],[0,0.05],[0,0.075],[0,0.1],[0,0.125],[0,0.15],[0,0.175],[0,0.2],[0,0.225],[0,0.25],[0,0.275],[0,0.3],[0,0.325],[0,0.35],[0,0.375],[0,0.4],[0,0.425],[0,0.45],[0,0.475],[0,0.5],[0,0.525],[0,0.55],[0,0.575],[0,0.6],[0,0.625],[0,0.65],[0,0.675],[0,0.7],[0,0.725],[0,0.75],[0,0.775],[0,0.8],[0,0.825],[0,0.85],[0,0.875],[0,0.9],[0,0.925],[0,0.95],[0,0.975],[0.025,0],[0.05,0],[0.075,0],[0.1,0],[0.125,0],[0.15,0],[0.175,0],[0.2,0],[0.225,0],[0.25,0],[0.275,0],[0.3,0],[0.325,0],[0.35,0],[0.375,0],[0.4,0],[0.425,0],[0.45,0],[0.475,0],[0.5,0],[0.525,0],[0.55,0],[0.575,0],[0.6,0],[0.625,0],[0.65,0],[0.675,0],[0.7,0],[0.725,0],[0.75,0],[0.775,0],[0.8,0],[0.825,0],[0.85,0],[0.875,0],[0.9,0],[0.925,0],[0.95,0],[0.975,0],[1,0.025],[1,0.05],[1,0.075],[1,0.1],[1,0.125],[1,0.15],[1,0.175],[1,0.2],[1,0.225],[1,0.25],[1,0.275],[1,0.3],[1,0.325],[1,0.35],[1,0.375],[1,0.4],[1,0.425],[1,0.45],[1,0.475],[1,0.5],[1,0.525],[1,0.55],[1,0.575],[1,0.6],[1,0.625],[1,0.65],[1,0.675],[1,0.7],[1,0.725],[1,0.75],[1,0.775],[1,0.8],[1,0.825],[1,0.85],[1,0.875],[1,0.9],[1,0.925],[1,0.95],[1,0.975],[0.025,1],[0.05,1],[0.075,1],[0.1,1],[0.125,1],[0.15,1],[0.175,1],[0.2,1],[0.225,1],[0.25,1],[0.275,1],[0.3,1],[0.325,1],[0.35,1],[0.375,1],[0.4,1],[0.425,1],[0.45,1],[0.475,1],[0.5,1],[0.525,1],[0.55,1],[0.575,1],[0.6,1],[0.625,1],[0.65,1],[0.675,1],[0.7,1],[0.725,1],[0.75,1],[0.775,1],[0.8,1],[0.825,1],[0.85,1],[0.875,1],[0.9,1],[0.925,1],[0.95,1],[0.975,1]];verticalAlign=middle;fontStyle=1;strokeColor=#6c8ebf;fillColor=#dae8fc;fontSize=21;" vertex="1" parent="1">
          <mxGeometry x="960" y="1420" width="120" height="40" as="geometry" />
        </mxCell>
        <mxCell id="ZMSztsOyMsakCCSBzYCo-68" style="edgeStyle=orthogonalEdgeStyle;rounded=0;orthogonalLoop=1;jettySize=auto;html=1;entryX=0;entryY=0.5;entryDx=0;entryDy=0;entryPerimeter=0;fontSize=17;exitX=0.475;exitY=1;exitDx=0;exitDy=0;" edge="1" parent="1" source="ZMSztsOyMsakCCSBzYCo-50" target="ZMSztsOyMsakCCSBzYCo-70">
          <mxGeometry relative="1" as="geometry">
            <mxPoint x="1030" y="1790" as="sourcePoint" />
          </mxGeometry>
        </mxCell>
        <mxCell id="ZMSztsOyMsakCCSBzYCo-69" style="edgeStyle=orthogonalEdgeStyle;rounded=0;orthogonalLoop=1;jettySize=auto;html=1;exitX=0.275;exitY=1;exitDx=0;exitDy=0;entryX=0;entryY=0.5;entryDx=0;entryDy=0;entryPerimeter=0;fontSize=17;" edge="1" parent="1" source="ZMSztsOyMsakCCSBzYCo-50" target="ZMSztsOyMsakCCSBzYCo-72">
          <mxGeometry relative="1" as="geometry">
            <mxPoint x="1030" y="1803" as="sourcePoint" />
          </mxGeometry>
        </mxCell>
        <mxCell id="ZMSztsOyMsakCCSBzYCo-70" value="BP Landscape" style="strokeWidth=2;html=1;shape=mxgraph.flowchart.terminator;whiteSpace=wrap;fontSize=17;" vertex="1" parent="1">
          <mxGeometry x="1110" y="1750" width="110" height="40" as="geometry" />
        </mxCell>
        <mxCell id="ZMSztsOyMsakCCSBzYCo-71" style="edgeStyle=orthogonalEdgeStyle;rounded=0;orthogonalLoop=1;jettySize=auto;html=1;exitX=1;exitY=0.5;exitDx=0;exitDy=0;exitPerimeter=0;entryX=1;entryY=0.5;entryDx=0;entryDy=0;entryPerimeter=0;fontSize=17;dashed=1;" edge="1" parent="1" source="ZMSztsOyMsakCCSBzYCo-72" target="ZMSztsOyMsakCCSBzYCo-70">
          <mxGeometry relative="1" as="geometry" />
        </mxCell>
        <mxCell id="ZMSztsOyMsakCCSBzYCo-72" value="MD" style="strokeWidth=2;html=1;shape=mxgraph.flowchart.terminator;whiteSpace=wrap;fontSize=17;" vertex="1" parent="1">
          <mxGeometry x="1110" y="1810" width="110" height="40" as="geometry" />
        </mxCell>
        <mxCell id="ZMSztsOyMsakCCSBzYCo-73" style="edgeStyle=orthogonalEdgeStyle;rounded=0;orthogonalLoop=1;jettySize=auto;html=1;exitX=1;exitY=0.5;exitDx=0;exitDy=0;entryX=1;entryY=0.5;entryDx=0;entryDy=0;" edge="1" parent="1" source="ZMSztsOyMsakCCSBzYCo-74" target="ZMSztsOyMsakCCSBzYCo-65">
          <mxGeometry relative="1" as="geometry" />
        </mxCell>
        <mxCell id="ZMSztsOyMsakCCSBzYCo-74" value="DescripciÃ³n&lt;br&gt;Alcance&lt;br&gt;Versionamiento&lt;br&gt;-FEAT&lt;br&gt;-FEAT&lt;br&gt;-FEAT-100" style="text;html=1;fillColor=none;align=left;verticalAlign=middle;whiteSpace=wrap;rounded=0;strokeColor=#000000;" vertex="1" parent="1">
          <mxGeometry x="1160" y="1850" width="160" height="110" as="geometry" />
        </mxCell>
        <mxCell id="ZMSztsOyMsakCCSBzYCo-75" value="FEAT" style="rounded=1;whiteSpace=wrap;html=1;points=[[0,0.025],[0,0.05],[0,0.075],[0,0.1],[0,0.125],[0,0.15],[0,0.175],[0,0.2],[0,0.225],[0,0.25],[0,0.275],[0,0.3],[0,0.325],[0,0.35],[0,0.375],[0,0.4],[0,0.425],[0,0.45],[0,0.475],[0,0.5],[0,0.525],[0,0.55],[0,0.575],[0,0.6],[0,0.625],[0,0.65],[0,0.675],[0,0.7],[0,0.725],[0,0.75],[0,0.775],[0,0.8],[0,0.825],[0,0.85],[0,0.875],[0,0.9],[0,0.925],[0,0.95],[0,0.975],[0.025,0],[0.05,0],[0.075,0],[0.1,0],[0.125,0],[0.15,0],[0.175,0],[0.2,0],[0.225,0],[0.25,0],[0.275,0],[0.3,0],[0.325,0],[0.35,0],[0.375,0],[0.4,0],[0.425,0],[0.45,0],[0.475,0],[0.5,0],[0.525,0],[0.55,0],[0.575,0],[0.6,0],[0.625,0],[0.65,0],[0.675,0],[0.7,0],[0.725,0],[0.75,0],[0.775,0],[0.8,0],[0.825,0],[0.85,0],[0.875,0],[0.9,0],[0.925,0],[0.95,0],[0.975,0],[1,0.025],[1,0.05],[1,0.075],[1,0.1],[1,0.125],[1,0.15],[1,0.175],[1,0.2],[1,0.225],[1,0.25],[1,0.275],[1,0.3],[1,0.325],[1,0.35],[1,0.375],[1,0.4],[1,0.425],[1,0.45],[1,0.475],[1,0.5],[1,0.525],[1,0.55],[1,0.575],[1,0.6],[1,0.625],[1,0.65],[1,0.675],[1,0.7],[1,0.725],[1,0.75],[1,0.775],[1,0.8],[1,0.825],[1,0.85],[1,0.875],[1,0.9],[1,0.925],[1,0.95],[1,0.975],[0.025,1],[0.05,1],[0.075,1],[0.1,1],[0.125,1],[0.15,1],[0.175,1],[0.2,1],[0.225,1],[0.25,1],[0.275,1],[0.3,1],[0.325,1],[0.35,1],[0.375,1],[0.4,1],[0.425,1],[0.45,1],[0.475,1],[0.5,1],[0.525,1],[0.55,1],[0.575,1],[0.6,1],[0.625,1],[0.65,1],[0.675,1],[0.7,1],[0.725,1],[0.75,1],[0.775,1],[0.8,1],[0.825,1],[0.85,1],[0.875,1],[0.9,1],[0.925,1],[0.95,1],[0.975,1]];verticalAlign=middle;fontStyle=1;strokeColor=#d6b656;fillColor=#fff2cc;fontSize=21;" vertex="1" parent="1">
          <mxGeometry x="960" y="1570" width="120" height="40" as="geometry" />
        </mxCell>
        <mxCell id="ZMSztsOyMsakCCSBzYCo-76" value="BP Landscape.drawio" style="strokeWidth=2;html=1;shape=mxgraph.flowchart.terminator;whiteSpace=wrap;fontSize=17;" vertex="1" parent="1">
          <mxGeometry x="875" y="1160" width="185" height="40" as="geometry" />
        </mxCell>
        <mxCell id="ZMSztsOyMsakCCSBzYCo-77" style="edgeStyle=orthogonalEdgeStyle;rounded=0;orthogonalLoop=1;jettySize=auto;html=1;exitX=1;exitY=0.5;exitDx=0;exitDy=0;exitPerimeter=0;entryX=1;entryY=0.5;entryDx=0;entryDy=0;entryPerimeter=0;fontSize=17;dashed=1;" edge="1" parent="1" source="ZMSztsOyMsakCCSBzYCo-78" target="ZMSztsOyMsakCCSBzYCo-76">
          <mxGeometry relative="1" as="geometry" />
        </mxCell>
        <mxCell id="ZMSztsOyMsakCCSBzYCo-78" value="MD" style="strokeWidth=2;html=1;shape=mxgraph.flowchart.terminator;whiteSpace=wrap;fontSize=17;" vertex="1" parent="1">
          <mxGeometry x="875" y="1220" width="110" height="40" as="geometry" />
        </mxCell>
        <mxCell id="ZMSztsOyMsakCCSBzYCo-79" value="DescripciÃ³n&lt;br&gt;GrÃ¡ficos&lt;br&gt;Alcance&lt;br&gt;Versionamiento&lt;br&gt;-FEAT&lt;br&gt;-FEAT&lt;br&gt;-FEAT-100" style="text;html=1;fillColor=none;align=left;verticalAlign=middle;whiteSpace=wrap;rounded=0;strokeColor=#000000;" vertex="1" parent="1">
          <mxGeometry x="925" y="1260" width="160" height="110" as="geometry" />
        </mxCell>
        <mxCell id="ZMSztsOyMsakCCSBzYCo-80" value="FEAT" style="rounded=1;whiteSpace=wrap;html=1;points=[[0,0.025],[0,0.05],[0,0.075],[0,0.1],[0,0.125],[0,0.15],[0,0.175],[0,0.2],[0,0.225],[0,0.25],[0,0.275],[0,0.3],[0,0.325],[0,0.35],[0,0.375],[0,0.4],[0,0.425],[0,0.45],[0,0.475],[0,0.5],[0,0.525],[0,0.55],[0,0.575],[0,0.6],[0,0.625],[0,0.65],[0,0.675],[0,0.7],[0,0.725],[0,0.75],[0,0.775],[0,0.8],[0,0.825],[0,0.85],[0,0.875],[0,0.9],[0,0.925],[0,0.95],[0,0.975],[0.025,0],[0.05,0],[0.075,0],[0.1,0],[0.125,0],[0.15,0],[0.175,0],[0.2,0],[0.225,0],[0.25,0],[0.275,0],[0.3,0],[0.325,0],[0.35,0],[0.375,0],[0.4,0],[0.425,0],[0.45,0],[0.475,0],[0.5,0],[0.525,0],[0.55,0],[0.575,0],[0.6,0],[0.625,0],[0.65,0],[0.675,0],[0.7,0],[0.725,0],[0.75,0],[0.775,0],[0.8,0],[0.825,0],[0.85,0],[0.875,0],[0.9,0],[0.925,0],[0.95,0],[0.975,0],[1,0.025],[1,0.05],[1,0.075],[1,0.1],[1,0.125],[1,0.15],[1,0.175],[1,0.2],[1,0.225],[1,0.25],[1,0.275],[1,0.3],[1,0.325],[1,0.35],[1,0.375],[1,0.4],[1,0.425],[1,0.45],[1,0.475],[1,0.5],[1,0.525],[1,0.55],[1,0.575],[1,0.6],[1,0.625],[1,0.65],[1,0.675],[1,0.7],[1,0.725],[1,0.75],[1,0.775],[1,0.8],[1,0.825],[1,0.85],[1,0.875],[1,0.9],[1,0.925],[1,0.95],[1,0.975],[0.025,1],[0.05,1],[0.075,1],[0.1,1],[0.125,1],[0.15,1],[0.175,1],[0.2,1],[0.225,1],[0.25,1],[0.275,1],[0.3,1],[0.325,1],[0.35,1],[0.375,1],[0.4,1],[0.425,1],[0.45,1],[0.475,1],[0.5,1],[0.525,1],[0.55,1],[0.575,1],[0.6,1],[0.625,1],[0.65,1],[0.675,1],[0.7,1],[0.725,1],[0.75,1],[0.775,1],[0.8,1],[0.825,1],[0.85,1],[0.875,1],[0.9,1],[0.925,1],[0.95,1],[0.975,1]];verticalAlign=middle;fontStyle=1;strokeColor=#d6b656;fillColor=#fff2cc;fontSize=21;" vertex="1" parent="1">
          <mxGeometry x="925" y="1010" width="120" height="40" as="geometry" />
        </mxCell>
        <mxCell id="ZMSztsOyMsakCCSBzYCo-81" value="FEAT" style="rounded=1;whiteSpace=wrap;html=1;points=[[0,0.025],[0,0.05],[0,0.075],[0,0.1],[0,0.125],[0,0.15],[0,0.175],[0,0.2],[0,0.225],[0,0.25],[0,0.275],[0,0.3],[0,0.325],[0,0.35],[0,0.375],[0,0.4],[0,0.425],[0,0.45],[0,0.475],[0,0.5],[0,0.525],[0,0.55],[0,0.575],[0,0.6],[0,0.625],[0,0.65],[0,0.675],[0,0.7],[0,0.725],[0,0.75],[0,0.775],[0,0.8],[0,0.825],[0,0.85],[0,0.875],[0,0.9],[0,0.925],[0,0.95],[0,0.975],[0.025,0],[0.05,0],[0.075,0],[0.1,0],[0.125,0],[0.15,0],[0.175,0],[0.2,0],[0.225,0],[0.25,0],[0.275,0],[0.3,0],[0.325,0],[0.35,0],[0.375,0],[0.4,0],[0.425,0],[0.45,0],[0.475,0],[0.5,0],[0.525,0],[0.55,0],[0.575,0],[0.6,0],[0.625,0],[0.65,0],[0.675,0],[0.7,0],[0.725,0],[0.75,0],[0.775,0],[0.8,0],[0.825,0],[0.85,0],[0.875,0],[0.9,0],[0.925,0],[0.95,0],[0.975,0],[1,0.025],[1,0.05],[1,0.075],[1,0.1],[1,0.125],[1,0.15],[1,0.175],[1,0.2],[1,0.225],[1,0.25],[1,0.275],[1,0.3],[1,0.325],[1,0.35],[1,0.375],[1,0.4],[1,0.425],[1,0.45],[1,0.475],[1,0.5],[1,0.525],[1,0.55],[1,0.575],[1,0.6],[1,0.625],[1,0.65],[1,0.675],[1,0.7],[1,0.725],[1,0.75],[1,0.775],[1,0.8],[1,0.825],[1,0.85],[1,0.875],[1,0.9],[1,0.925],[1,0.95],[1,0.975],[0.025,1],[0.05,1],[0.075,1],[0.1,1],[0.125,1],[0.15,1],[0.175,1],[0.2,1],[0.225,1],[0.25,1],[0.275,1],[0.3,1],[0.325,1],[0.35,1],[0.375,1],[0.4,1],[0.425,1],[0.45,1],[0.475,1],[0.5,1],[0.525,1],[0.55,1],[0.575,1],[0.6,1],[0.625,1],[0.65,1],[0.675,1],[0.7,1],[0.725,1],[0.75,1],[0.775,1],[0.8,1],[0.825,1],[0.85,1],[0.875,1],[0.9,1],[0.925,1],[0.95,1],[0.975,1]];verticalAlign=middle;fontStyle=1;strokeColor=#82b366;fillColor=#d5e8d4;fontSize=21;" vertex="1" parent="1">
          <mxGeometry x="925" y="1060" width="120" height="40" as="geometry" />
        </mxCell>
        <mxCell id="ZMSztsOyMsakCCSBzYCo-82" style="edgeStyle=orthogonalEdgeStyle;rounded=0;orthogonalLoop=1;jettySize=auto;html=1;entryX=0;entryY=0.825;entryDx=0;entryDy=0;" edge="1" parent="1" source="ZMSztsOyMsakCCSBzYCo-84" target="ZMSztsOyMsakCCSBzYCo-53">
          <mxGeometry relative="1" as="geometry" />
        </mxCell>
        <mxCell id="ZMSztsOyMsakCCSBzYCo-83" style="edgeStyle=orthogonalEdgeStyle;rounded=0;orthogonalLoop=1;jettySize=auto;html=1;entryX=0;entryY=0.525;entryDx=0;entryDy=0;" edge="1" parent="1" source="ZMSztsOyMsakCCSBzYCo-84" target="ZMSztsOyMsakCCSBzYCo-48">
          <mxGeometry relative="1" as="geometry" />
        </mxCell>
        <mxCell id="ZMSztsOyMsakCCSBzYCo-84" value="&lt;h1 style=&quot;box-sizing: border-box ; margin-right: 0px ; margin-left: 0px ; line-height: 1.25 ; border-bottom: 1px solid ; padding-bottom: 0.3em ; color: rgb(36 , 41 , 46) ; font-family: , &amp;#34;blinkmacsystemfont&amp;#34; , &amp;#34;segoe ui&amp;#34; , &amp;#34;helvetica&amp;#34; , &amp;#34;arial&amp;#34; , sans-serif , &amp;#34;apple color emoji&amp;#34; , &amp;#34;segoe ui emoji&amp;#34; ; background-color: rgb(255 , 255 , 255) ; margin-top: 0px ; margin-bottom: 0px&quot;&gt;TEFArquituraSolicones&lt;/h1&gt;" style="rounded=1;whiteSpace=wrap;html=1;points=[[0,0.025],[0,0.05],[0,0.075],[0,0.1],[0,0.125],[0,0.15],[0,0.175],[0,0.2],[0,0.225],[0,0.25],[0,0.275],[0,0.3],[0,0.325],[0,0.35],[0,0.375],[0,0.4],[0,0.425],[0,0.45],[0,0.475],[0,0.5],[0,0.525],[0,0.55],[0,0.575],[0,0.6],[0,0.625],[0,0.65],[0,0.675],[0,0.7],[0,0.725],[0,0.75],[0,0.775],[0,0.8],[0,0.825],[0,0.85],[0,0.875],[0,0.9],[0,0.925],[0,0.95],[0,0.975],[0.025,0],[0.05,0],[0.075,0],[0.1,0],[0.125,0],[0.15,0],[0.175,0],[0.2,0],[0.225,0],[0.25,0],[0.275,0],[0.3,0],[0.325,0],[0.35,0],[0.375,0],[0.4,0],[0.425,0],[0.45,0],[0.475,0],[0.5,0],[0.525,0],[0.55,0],[0.575,0],[0.6,0],[0.625,0],[0.65,0],[0.675,0],[0.7,0],[0.725,0],[0.75,0],[0.775,0],[0.8,0],[0.825,0],[0.85,0],[0.875,0],[0.9,0],[0.925,0],[0.95,0],[0.975,0],[1,0.025],[1,0.05],[1,0.075],[1,0.1],[1,0.125],[1,0.15],[1,0.175],[1,0.2],[1,0.225],[1,0.25],[1,0.275],[1,0.3],[1,0.325],[1,0.35],[1,0.375],[1,0.4],[1,0.425],[1,0.45],[1,0.475],[1,0.5],[1,0.525],[1,0.55],[1,0.575],[1,0.6],[1,0.625],[1,0.65],[1,0.675],[1,0.7],[1,0.725],[1,0.75],[1,0.775],[1,0.8],[1,0.825],[1,0.85],[1,0.875],[1,0.9],[1,0.925],[1,0.95],[1,0.975],[0.025,1],[0.05,1],[0.075,1],[0.1,1],[0.125,1],[0.15,1],[0.175,1],[0.2,1],[0.225,1],[0.25,1],[0.275,1],[0.3,1],[0.325,1],[0.35,1],[0.375,1],[0.4,1],[0.425,1],[0.45,1],[0.475,1],[0.5,1],[0.525,1],[0.55,1],[0.575,1],[0.6,1],[0.625,1],[0.65,1],[0.675,1],[0.7,1],[0.725,1],[0.75,1],[0.775,1],[0.8,1],[0.825,1],[0.85,1],[0.875,1],[0.9,1],[0.925,1],[0.95,1],[0.975,1]];verticalAlign=middle;fontStyle=1;strokeColor=#666666;fillColor=#f5f5f5;fontColor=#333333;fontSize=21;" vertex="1" parent="1">
          <mxGeometry x="-420" y="970" width="200" height="40" as="geometry" />
        </mxCell>
      </root>
    </mxGraphModel>
  </diagram>
</mxfile>
